%TF.GenerationSoftware,KiCad,Pcbnew,(5.1.10)-1*%
%TF.CreationDate,2021-11-11T09:34:37-08:00*%
%TF.ProjectId,encoder_5v_to_3v,656e636f-6465-4725-9f35-765f746f5f33,rev?*%
%TF.SameCoordinates,Original*%
%TF.FileFunction,Legend,Top*%
%TF.FilePolarity,Positive*%
%FSLAX46Y46*%
G04 Gerber Fmt 4.6, Leading zero omitted, Abs format (unit mm)*
G04 Created by KiCad (PCBNEW (5.1.10)-1) date 2021-11-11 09:34:37*
%MOMM*%
%LPD*%
G01*
G04 APERTURE LIST*
%ADD10C,0.150000*%
%ADD11C,0.120000*%
G04 APERTURE END LIST*
D10*
X90892380Y-119013809D02*
X90892380Y-119490000D01*
X91368571Y-119537619D01*
X91320952Y-119490000D01*
X91273333Y-119394761D01*
X91273333Y-119156666D01*
X91320952Y-119061428D01*
X91368571Y-119013809D01*
X91463809Y-118966190D01*
X91701904Y-118966190D01*
X91797142Y-119013809D01*
X91844761Y-119061428D01*
X91892380Y-119156666D01*
X91892380Y-119394761D01*
X91844761Y-119490000D01*
X91797142Y-119537619D01*
X90892380Y-118680476D02*
X91892380Y-118347142D01*
X90892380Y-118013809D01*
X91225714Y-117061428D02*
X91225714Y-116680476D01*
X90892380Y-116918571D02*
X91749523Y-116918571D01*
X91844761Y-116870952D01*
X91892380Y-116775714D01*
X91892380Y-116680476D01*
X91892380Y-116204285D02*
X91844761Y-116299523D01*
X91797142Y-116347142D01*
X91701904Y-116394761D01*
X91416190Y-116394761D01*
X91320952Y-116347142D01*
X91273333Y-116299523D01*
X91225714Y-116204285D01*
X91225714Y-116061428D01*
X91273333Y-115966190D01*
X91320952Y-115918571D01*
X91416190Y-115870952D01*
X91701904Y-115870952D01*
X91797142Y-115918571D01*
X91844761Y-115966190D01*
X91892380Y-116061428D01*
X91892380Y-116204285D01*
X90892380Y-114775714D02*
X90892380Y-114156666D01*
X91273333Y-114490000D01*
X91273333Y-114347142D01*
X91320952Y-114251904D01*
X91368571Y-114204285D01*
X91463809Y-114156666D01*
X91701904Y-114156666D01*
X91797142Y-114204285D01*
X91844761Y-114251904D01*
X91892380Y-114347142D01*
X91892380Y-114632857D01*
X91844761Y-114728095D01*
X91797142Y-114775714D01*
X91797142Y-113728095D02*
X91844761Y-113680476D01*
X91892380Y-113728095D01*
X91844761Y-113775714D01*
X91797142Y-113728095D01*
X91892380Y-113728095D01*
X90892380Y-113347142D02*
X90892380Y-112728095D01*
X91273333Y-113061428D01*
X91273333Y-112918571D01*
X91320952Y-112823333D01*
X91368571Y-112775714D01*
X91463809Y-112728095D01*
X91701904Y-112728095D01*
X91797142Y-112775714D01*
X91844761Y-112823333D01*
X91892380Y-112918571D01*
X91892380Y-113204285D01*
X91844761Y-113299523D01*
X91797142Y-113347142D01*
X90892380Y-112442380D02*
X91892380Y-112109047D01*
X90892380Y-111775714D01*
X91368571Y-110347142D02*
X91416190Y-110204285D01*
X91463809Y-110156666D01*
X91559047Y-110109047D01*
X91701904Y-110109047D01*
X91797142Y-110156666D01*
X91844761Y-110204285D01*
X91892380Y-110299523D01*
X91892380Y-110680476D01*
X90892380Y-110680476D01*
X90892380Y-110347142D01*
X90940000Y-110251904D01*
X90987619Y-110204285D01*
X91082857Y-110156666D01*
X91178095Y-110156666D01*
X91273333Y-110204285D01*
X91320952Y-110251904D01*
X91368571Y-110347142D01*
X91368571Y-110680476D01*
X91892380Y-109537619D02*
X91844761Y-109632857D01*
X91797142Y-109680476D01*
X91701904Y-109728095D01*
X91416190Y-109728095D01*
X91320952Y-109680476D01*
X91273333Y-109632857D01*
X91225714Y-109537619D01*
X91225714Y-109394761D01*
X91273333Y-109299523D01*
X91320952Y-109251904D01*
X91416190Y-109204285D01*
X91701904Y-109204285D01*
X91797142Y-109251904D01*
X91844761Y-109299523D01*
X91892380Y-109394761D01*
X91892380Y-109537619D01*
X91892380Y-108347142D02*
X91368571Y-108347142D01*
X91273333Y-108394761D01*
X91225714Y-108490000D01*
X91225714Y-108680476D01*
X91273333Y-108775714D01*
X91844761Y-108347142D02*
X91892380Y-108442380D01*
X91892380Y-108680476D01*
X91844761Y-108775714D01*
X91749523Y-108823333D01*
X91654285Y-108823333D01*
X91559047Y-108775714D01*
X91511428Y-108680476D01*
X91511428Y-108442380D01*
X91463809Y-108347142D01*
X91892380Y-107870952D02*
X91225714Y-107870952D01*
X91416190Y-107870952D02*
X91320952Y-107823333D01*
X91273333Y-107775714D01*
X91225714Y-107680476D01*
X91225714Y-107585238D01*
X91892380Y-106823333D02*
X90892380Y-106823333D01*
X91844761Y-106823333D02*
X91892380Y-106918571D01*
X91892380Y-107109047D01*
X91844761Y-107204285D01*
X91797142Y-107251904D01*
X91701904Y-107299523D01*
X91416190Y-107299523D01*
X91320952Y-107251904D01*
X91273333Y-107204285D01*
X91225714Y-107109047D01*
X91225714Y-106918571D01*
X91273333Y-106823333D01*
X91225714Y-105680476D02*
X91892380Y-105442380D01*
X91225714Y-105204285D01*
X90892380Y-104632857D02*
X90892380Y-104537619D01*
X90940000Y-104442380D01*
X90987619Y-104394761D01*
X91082857Y-104347142D01*
X91273333Y-104299523D01*
X91511428Y-104299523D01*
X91701904Y-104347142D01*
X91797142Y-104394761D01*
X91844761Y-104442380D01*
X91892380Y-104537619D01*
X91892380Y-104632857D01*
X91844761Y-104728095D01*
X91797142Y-104775714D01*
X91701904Y-104823333D01*
X91511428Y-104870952D01*
X91273333Y-104870952D01*
X91082857Y-104823333D01*
X90987619Y-104775714D01*
X90940000Y-104728095D01*
X90892380Y-104632857D01*
X91797142Y-103870952D02*
X91844761Y-103823333D01*
X91892380Y-103870952D01*
X91844761Y-103918571D01*
X91797142Y-103870952D01*
X91892380Y-103870952D01*
X90892380Y-103204285D02*
X90892380Y-103109047D01*
X90940000Y-103013809D01*
X90987619Y-102966190D01*
X91082857Y-102918571D01*
X91273333Y-102870952D01*
X91511428Y-102870952D01*
X91701904Y-102918571D01*
X91797142Y-102966190D01*
X91844761Y-103013809D01*
X91892380Y-103109047D01*
X91892380Y-103204285D01*
X91844761Y-103299523D01*
X91797142Y-103347142D01*
X91701904Y-103394761D01*
X91511428Y-103442380D01*
X91273333Y-103442380D01*
X91082857Y-103394761D01*
X90987619Y-103347142D01*
X90940000Y-103299523D01*
X90892380Y-103204285D01*
X91797142Y-102442380D02*
X91844761Y-102394761D01*
X91892380Y-102442380D01*
X91844761Y-102490000D01*
X91797142Y-102442380D01*
X91892380Y-102442380D01*
X91892380Y-101442380D02*
X91892380Y-102013809D01*
X91892380Y-101728095D02*
X90892380Y-101728095D01*
X91035238Y-101823333D01*
X91130476Y-101918571D01*
X91178095Y-102013809D01*
D11*
%TO.C,R1*%
X97790000Y-98020000D02*
X97790000Y-97250000D01*
X97790000Y-89940000D02*
X97790000Y-90710000D01*
X99160000Y-97250000D02*
X99160000Y-90710000D01*
X96420000Y-97250000D02*
X99160000Y-97250000D01*
X96420000Y-90710000D02*
X96420000Y-97250000D01*
X99160000Y-90710000D02*
X96420000Y-90710000D01*
%TO.C,R9*%
X120650000Y-125960000D02*
X120650000Y-125190000D01*
X120650000Y-117880000D02*
X120650000Y-118650000D01*
X122020000Y-125190000D02*
X122020000Y-118650000D01*
X119280000Y-125190000D02*
X122020000Y-125190000D01*
X119280000Y-118650000D02*
X119280000Y-125190000D01*
X122020000Y-118650000D02*
X119280000Y-118650000D01*
%TO.C,R8*%
X120650000Y-111990000D02*
X120650000Y-111220000D01*
X120650000Y-103910000D02*
X120650000Y-104680000D01*
X122020000Y-111220000D02*
X122020000Y-104680000D01*
X119280000Y-111220000D02*
X122020000Y-111220000D01*
X119280000Y-104680000D02*
X119280000Y-111220000D01*
X122020000Y-104680000D02*
X119280000Y-104680000D01*
%TO.C,R7*%
X120650000Y-98020000D02*
X120650000Y-97250000D01*
X120650000Y-89940000D02*
X120650000Y-90710000D01*
X122020000Y-97250000D02*
X122020000Y-90710000D01*
X119280000Y-97250000D02*
X122020000Y-97250000D01*
X119280000Y-90710000D02*
X119280000Y-97250000D01*
X122020000Y-90710000D02*
X119280000Y-90710000D01*
%TO.C,R6*%
X109220000Y-125960000D02*
X109220000Y-125190000D01*
X109220000Y-117880000D02*
X109220000Y-118650000D01*
X110590000Y-125190000D02*
X110590000Y-118650000D01*
X107850000Y-125190000D02*
X110590000Y-125190000D01*
X107850000Y-118650000D02*
X107850000Y-125190000D01*
X110590000Y-118650000D02*
X107850000Y-118650000D01*
%TO.C,R5*%
X109220000Y-111990000D02*
X109220000Y-111220000D01*
X109220000Y-103910000D02*
X109220000Y-104680000D01*
X110590000Y-111220000D02*
X110590000Y-104680000D01*
X107850000Y-111220000D02*
X110590000Y-111220000D01*
X107850000Y-104680000D02*
X107850000Y-111220000D01*
X110590000Y-104680000D02*
X107850000Y-104680000D01*
%TO.C,R4*%
X109220000Y-98020000D02*
X109220000Y-97250000D01*
X109220000Y-89940000D02*
X109220000Y-90710000D01*
X110590000Y-97250000D02*
X110590000Y-90710000D01*
X107850000Y-97250000D02*
X110590000Y-97250000D01*
X107850000Y-90710000D02*
X107850000Y-97250000D01*
X110590000Y-90710000D02*
X107850000Y-90710000D01*
%TO.C,R3*%
X97790000Y-117880000D02*
X97790000Y-118650000D01*
X97790000Y-125960000D02*
X97790000Y-125190000D01*
X96420000Y-118650000D02*
X96420000Y-125190000D01*
X99160000Y-118650000D02*
X96420000Y-118650000D01*
X99160000Y-125190000D02*
X99160000Y-118650000D01*
X96420000Y-125190000D02*
X99160000Y-125190000D01*
%TO.C,R2*%
X97790000Y-111990000D02*
X97790000Y-111220000D01*
X97790000Y-103910000D02*
X97790000Y-104680000D01*
X99160000Y-111220000D02*
X99160000Y-104680000D01*
X96420000Y-111220000D02*
X99160000Y-111220000D01*
X96420000Y-104680000D02*
X96420000Y-111220000D01*
X99160000Y-104680000D02*
X96420000Y-104680000D01*
%TO.C,J1*%
X90170000Y-83820000D02*
X100330000Y-83820000D01*
X90170000Y-76200000D02*
X90170000Y-83820000D01*
X100330000Y-76200000D02*
X90170000Y-76200000D01*
X100330000Y-83820000D02*
X100330000Y-76200000D01*
X100330000Y-82550000D02*
X90170000Y-82550000D01*
%TO.C,J2*%
X111760000Y-82550000D02*
X101600000Y-82550000D01*
X111760000Y-83820000D02*
X111760000Y-76200000D01*
X111760000Y-76200000D02*
X101600000Y-76200000D01*
X101600000Y-76200000D02*
X101600000Y-83820000D01*
X101600000Y-83820000D02*
X111760000Y-83820000D01*
%TO.C,J3*%
X113030000Y-83820000D02*
X123190000Y-83820000D01*
X113030000Y-76200000D02*
X113030000Y-83820000D01*
X123190000Y-76200000D02*
X113030000Y-76200000D01*
X123190000Y-83820000D02*
X123190000Y-76200000D01*
X123190000Y-82550000D02*
X113030000Y-82550000D01*
%TO.C,J4*%
X125730000Y-83820000D02*
X135890000Y-83820000D01*
X125730000Y-76200000D02*
X125730000Y-83820000D01*
X135890000Y-76200000D02*
X125730000Y-76200000D01*
X135890000Y-83820000D02*
X135890000Y-76200000D01*
X135890000Y-82550000D02*
X125730000Y-82550000D01*
%TO.C,J5*%
X132080000Y-129540000D02*
X132080000Y-119380000D01*
X130810000Y-129540000D02*
X138430000Y-129540000D01*
X138430000Y-129540000D02*
X138430000Y-119380000D01*
X138430000Y-119380000D02*
X130810000Y-119380000D01*
X130810000Y-119380000D02*
X130810000Y-129540000D01*
%TO.C,J6*%
X130810000Y-107950000D02*
X130810000Y-118110000D01*
X138430000Y-107950000D02*
X130810000Y-107950000D01*
X138430000Y-118110000D02*
X138430000Y-107950000D01*
X130810000Y-118110000D02*
X138430000Y-118110000D01*
X132080000Y-118110000D02*
X132080000Y-107950000D01*
%TO.C,J7*%
X132080000Y-106680000D02*
X132080000Y-96520000D01*
X130810000Y-106680000D02*
X138430000Y-106680000D01*
X138430000Y-106680000D02*
X138430000Y-96520000D01*
X138430000Y-96520000D02*
X130810000Y-96520000D01*
X130810000Y-96520000D02*
X130810000Y-106680000D01*
%TO.C,J8*%
X130810000Y-85090000D02*
X130810000Y-95250000D01*
X138430000Y-85090000D02*
X130810000Y-85090000D01*
X138430000Y-95250000D02*
X138430000Y-85090000D01*
X130810000Y-95250000D02*
X138430000Y-95250000D01*
X132080000Y-95250000D02*
X132080000Y-85090000D01*
%TO.C,R1*%
D10*
X100612380Y-94146666D02*
X100136190Y-94480000D01*
X100612380Y-94718095D02*
X99612380Y-94718095D01*
X99612380Y-94337142D01*
X99660000Y-94241904D01*
X99707619Y-94194285D01*
X99802857Y-94146666D01*
X99945714Y-94146666D01*
X100040952Y-94194285D01*
X100088571Y-94241904D01*
X100136190Y-94337142D01*
X100136190Y-94718095D01*
X100612380Y-93194285D02*
X100612380Y-93765714D01*
X100612380Y-93480000D02*
X99612380Y-93480000D01*
X99755238Y-93575238D01*
X99850476Y-93670476D01*
X99898095Y-93765714D01*
%TO.C,R9*%
X123472380Y-122086666D02*
X122996190Y-122420000D01*
X123472380Y-122658095D02*
X122472380Y-122658095D01*
X122472380Y-122277142D01*
X122520000Y-122181904D01*
X122567619Y-122134285D01*
X122662857Y-122086666D01*
X122805714Y-122086666D01*
X122900952Y-122134285D01*
X122948571Y-122181904D01*
X122996190Y-122277142D01*
X122996190Y-122658095D01*
X123472380Y-121610476D02*
X123472380Y-121420000D01*
X123424761Y-121324761D01*
X123377142Y-121277142D01*
X123234285Y-121181904D01*
X123043809Y-121134285D01*
X122662857Y-121134285D01*
X122567619Y-121181904D01*
X122520000Y-121229523D01*
X122472380Y-121324761D01*
X122472380Y-121515238D01*
X122520000Y-121610476D01*
X122567619Y-121658095D01*
X122662857Y-121705714D01*
X122900952Y-121705714D01*
X122996190Y-121658095D01*
X123043809Y-121610476D01*
X123091428Y-121515238D01*
X123091428Y-121324761D01*
X123043809Y-121229523D01*
X122996190Y-121181904D01*
X122900952Y-121134285D01*
%TO.C,R8*%
X123472380Y-108116666D02*
X122996190Y-108450000D01*
X123472380Y-108688095D02*
X122472380Y-108688095D01*
X122472380Y-108307142D01*
X122520000Y-108211904D01*
X122567619Y-108164285D01*
X122662857Y-108116666D01*
X122805714Y-108116666D01*
X122900952Y-108164285D01*
X122948571Y-108211904D01*
X122996190Y-108307142D01*
X122996190Y-108688095D01*
X122900952Y-107545238D02*
X122853333Y-107640476D01*
X122805714Y-107688095D01*
X122710476Y-107735714D01*
X122662857Y-107735714D01*
X122567619Y-107688095D01*
X122520000Y-107640476D01*
X122472380Y-107545238D01*
X122472380Y-107354761D01*
X122520000Y-107259523D01*
X122567619Y-107211904D01*
X122662857Y-107164285D01*
X122710476Y-107164285D01*
X122805714Y-107211904D01*
X122853333Y-107259523D01*
X122900952Y-107354761D01*
X122900952Y-107545238D01*
X122948571Y-107640476D01*
X122996190Y-107688095D01*
X123091428Y-107735714D01*
X123281904Y-107735714D01*
X123377142Y-107688095D01*
X123424761Y-107640476D01*
X123472380Y-107545238D01*
X123472380Y-107354761D01*
X123424761Y-107259523D01*
X123377142Y-107211904D01*
X123281904Y-107164285D01*
X123091428Y-107164285D01*
X122996190Y-107211904D01*
X122948571Y-107259523D01*
X122900952Y-107354761D01*
%TO.C,R7*%
X123472380Y-94146666D02*
X122996190Y-94480000D01*
X123472380Y-94718095D02*
X122472380Y-94718095D01*
X122472380Y-94337142D01*
X122520000Y-94241904D01*
X122567619Y-94194285D01*
X122662857Y-94146666D01*
X122805714Y-94146666D01*
X122900952Y-94194285D01*
X122948571Y-94241904D01*
X122996190Y-94337142D01*
X122996190Y-94718095D01*
X122472380Y-93813333D02*
X122472380Y-93146666D01*
X123472380Y-93575238D01*
%TO.C,R6*%
X112042380Y-122086666D02*
X111566190Y-122420000D01*
X112042380Y-122658095D02*
X111042380Y-122658095D01*
X111042380Y-122277142D01*
X111090000Y-122181904D01*
X111137619Y-122134285D01*
X111232857Y-122086666D01*
X111375714Y-122086666D01*
X111470952Y-122134285D01*
X111518571Y-122181904D01*
X111566190Y-122277142D01*
X111566190Y-122658095D01*
X111042380Y-121229523D02*
X111042380Y-121420000D01*
X111090000Y-121515238D01*
X111137619Y-121562857D01*
X111280476Y-121658095D01*
X111470952Y-121705714D01*
X111851904Y-121705714D01*
X111947142Y-121658095D01*
X111994761Y-121610476D01*
X112042380Y-121515238D01*
X112042380Y-121324761D01*
X111994761Y-121229523D01*
X111947142Y-121181904D01*
X111851904Y-121134285D01*
X111613809Y-121134285D01*
X111518571Y-121181904D01*
X111470952Y-121229523D01*
X111423333Y-121324761D01*
X111423333Y-121515238D01*
X111470952Y-121610476D01*
X111518571Y-121658095D01*
X111613809Y-121705714D01*
%TO.C,R5*%
X112042380Y-108116666D02*
X111566190Y-108450000D01*
X112042380Y-108688095D02*
X111042380Y-108688095D01*
X111042380Y-108307142D01*
X111090000Y-108211904D01*
X111137619Y-108164285D01*
X111232857Y-108116666D01*
X111375714Y-108116666D01*
X111470952Y-108164285D01*
X111518571Y-108211904D01*
X111566190Y-108307142D01*
X111566190Y-108688095D01*
X111042380Y-107211904D02*
X111042380Y-107688095D01*
X111518571Y-107735714D01*
X111470952Y-107688095D01*
X111423333Y-107592857D01*
X111423333Y-107354761D01*
X111470952Y-107259523D01*
X111518571Y-107211904D01*
X111613809Y-107164285D01*
X111851904Y-107164285D01*
X111947142Y-107211904D01*
X111994761Y-107259523D01*
X112042380Y-107354761D01*
X112042380Y-107592857D01*
X111994761Y-107688095D01*
X111947142Y-107735714D01*
%TO.C,R4*%
X112042380Y-94146666D02*
X111566190Y-94480000D01*
X112042380Y-94718095D02*
X111042380Y-94718095D01*
X111042380Y-94337142D01*
X111090000Y-94241904D01*
X111137619Y-94194285D01*
X111232857Y-94146666D01*
X111375714Y-94146666D01*
X111470952Y-94194285D01*
X111518571Y-94241904D01*
X111566190Y-94337142D01*
X111566190Y-94718095D01*
X111375714Y-93289523D02*
X112042380Y-93289523D01*
X110994761Y-93527619D02*
X111709047Y-93765714D01*
X111709047Y-93146666D01*
%TO.C,R3*%
X95872380Y-122086666D02*
X95396190Y-122420000D01*
X95872380Y-122658095D02*
X94872380Y-122658095D01*
X94872380Y-122277142D01*
X94920000Y-122181904D01*
X94967619Y-122134285D01*
X95062857Y-122086666D01*
X95205714Y-122086666D01*
X95300952Y-122134285D01*
X95348571Y-122181904D01*
X95396190Y-122277142D01*
X95396190Y-122658095D01*
X94872380Y-121753333D02*
X94872380Y-121134285D01*
X95253333Y-121467619D01*
X95253333Y-121324761D01*
X95300952Y-121229523D01*
X95348571Y-121181904D01*
X95443809Y-121134285D01*
X95681904Y-121134285D01*
X95777142Y-121181904D01*
X95824761Y-121229523D01*
X95872380Y-121324761D01*
X95872380Y-121610476D01*
X95824761Y-121705714D01*
X95777142Y-121753333D01*
%TO.C,R2*%
X100612380Y-108116666D02*
X100136190Y-108450000D01*
X100612380Y-108688095D02*
X99612380Y-108688095D01*
X99612380Y-108307142D01*
X99660000Y-108211904D01*
X99707619Y-108164285D01*
X99802857Y-108116666D01*
X99945714Y-108116666D01*
X100040952Y-108164285D01*
X100088571Y-108211904D01*
X100136190Y-108307142D01*
X100136190Y-108688095D01*
X99707619Y-107735714D02*
X99660000Y-107688095D01*
X99612380Y-107592857D01*
X99612380Y-107354761D01*
X99660000Y-107259523D01*
X99707619Y-107211904D01*
X99802857Y-107164285D01*
X99898095Y-107164285D01*
X100040952Y-107211904D01*
X100612380Y-107783333D01*
X100612380Y-107164285D01*
%TO.C,J1*%
X94916666Y-74382380D02*
X94916666Y-75096666D01*
X94869047Y-75239523D01*
X94773809Y-75334761D01*
X94630952Y-75382380D01*
X94535714Y-75382380D01*
X95916666Y-75382380D02*
X95345238Y-75382380D01*
X95630952Y-75382380D02*
X95630952Y-74382380D01*
X95535714Y-74525238D01*
X95440476Y-74620476D01*
X95345238Y-74668095D01*
%TO.C,J2*%
X106346666Y-74382380D02*
X106346666Y-75096666D01*
X106299047Y-75239523D01*
X106203809Y-75334761D01*
X106060952Y-75382380D01*
X105965714Y-75382380D01*
X106775238Y-74477619D02*
X106822857Y-74430000D01*
X106918095Y-74382380D01*
X107156190Y-74382380D01*
X107251428Y-74430000D01*
X107299047Y-74477619D01*
X107346666Y-74572857D01*
X107346666Y-74668095D01*
X107299047Y-74810952D01*
X106727619Y-75382380D01*
X107346666Y-75382380D01*
%TO.C,J3*%
X117776666Y-74382380D02*
X117776666Y-75096666D01*
X117729047Y-75239523D01*
X117633809Y-75334761D01*
X117490952Y-75382380D01*
X117395714Y-75382380D01*
X118157619Y-74382380D02*
X118776666Y-74382380D01*
X118443333Y-74763333D01*
X118586190Y-74763333D01*
X118681428Y-74810952D01*
X118729047Y-74858571D01*
X118776666Y-74953809D01*
X118776666Y-75191904D01*
X118729047Y-75287142D01*
X118681428Y-75334761D01*
X118586190Y-75382380D01*
X118300476Y-75382380D01*
X118205238Y-75334761D01*
X118157619Y-75287142D01*
%TO.C,J4*%
X130476666Y-74382380D02*
X130476666Y-75096666D01*
X130429047Y-75239523D01*
X130333809Y-75334761D01*
X130190952Y-75382380D01*
X130095714Y-75382380D01*
X131381428Y-74715714D02*
X131381428Y-75382380D01*
X131143333Y-74334761D02*
X130905238Y-75049047D01*
X131524285Y-75049047D01*
%TO.C,J5*%
X139152380Y-124793333D02*
X139866666Y-124793333D01*
X140009523Y-124840952D01*
X140104761Y-124936190D01*
X140152380Y-125079047D01*
X140152380Y-125174285D01*
X139152380Y-123840952D02*
X139152380Y-124317142D01*
X139628571Y-124364761D01*
X139580952Y-124317142D01*
X139533333Y-124221904D01*
X139533333Y-123983809D01*
X139580952Y-123888571D01*
X139628571Y-123840952D01*
X139723809Y-123793333D01*
X139961904Y-123793333D01*
X140057142Y-123840952D01*
X140104761Y-123888571D01*
X140152380Y-123983809D01*
X140152380Y-124221904D01*
X140104761Y-124317142D01*
X140057142Y-124364761D01*
%TO.C,J6*%
X139152380Y-113363333D02*
X139866666Y-113363333D01*
X140009523Y-113410952D01*
X140104761Y-113506190D01*
X140152380Y-113649047D01*
X140152380Y-113744285D01*
X139152380Y-112458571D02*
X139152380Y-112649047D01*
X139200000Y-112744285D01*
X139247619Y-112791904D01*
X139390476Y-112887142D01*
X139580952Y-112934761D01*
X139961904Y-112934761D01*
X140057142Y-112887142D01*
X140104761Y-112839523D01*
X140152380Y-112744285D01*
X140152380Y-112553809D01*
X140104761Y-112458571D01*
X140057142Y-112410952D01*
X139961904Y-112363333D01*
X139723809Y-112363333D01*
X139628571Y-112410952D01*
X139580952Y-112458571D01*
X139533333Y-112553809D01*
X139533333Y-112744285D01*
X139580952Y-112839523D01*
X139628571Y-112887142D01*
X139723809Y-112934761D01*
%TO.C,J7*%
X139152380Y-101933333D02*
X139866666Y-101933333D01*
X140009523Y-101980952D01*
X140104761Y-102076190D01*
X140152380Y-102219047D01*
X140152380Y-102314285D01*
X139152380Y-101552380D02*
X139152380Y-100885714D01*
X140152380Y-101314285D01*
%TO.C,J8*%
X139152380Y-90503333D02*
X139866666Y-90503333D01*
X140009523Y-90550952D01*
X140104761Y-90646190D01*
X140152380Y-90789047D01*
X140152380Y-90884285D01*
X139580952Y-89884285D02*
X139533333Y-89979523D01*
X139485714Y-90027142D01*
X139390476Y-90074761D01*
X139342857Y-90074761D01*
X139247619Y-90027142D01*
X139200000Y-89979523D01*
X139152380Y-89884285D01*
X139152380Y-89693809D01*
X139200000Y-89598571D01*
X139247619Y-89550952D01*
X139342857Y-89503333D01*
X139390476Y-89503333D01*
X139485714Y-89550952D01*
X139533333Y-89598571D01*
X139580952Y-89693809D01*
X139580952Y-89884285D01*
X139628571Y-89979523D01*
X139676190Y-90027142D01*
X139771428Y-90074761D01*
X139961904Y-90074761D01*
X140057142Y-90027142D01*
X140104761Y-89979523D01*
X140152380Y-89884285D01*
X140152380Y-89693809D01*
X140104761Y-89598571D01*
X140057142Y-89550952D01*
X139961904Y-89503333D01*
X139771428Y-89503333D01*
X139676190Y-89550952D01*
X139628571Y-89598571D01*
X139580952Y-89693809D01*
%TD*%
M02*
