M48
; DRILL file {KiCad (5.1.10)-1} date 12/26/21 17:37:56
; FORMAT={-:-/ absolute / inch / decimal}
; #@! TF.CreationDate,2021-12-26T17:37:56-08:00
; #@! TF.GenerationSoftware,Kicad,Pcbnew,(5.1.10)-1
; #@! TF.FileFunction,Plated,1,2,PTH
FMAT,2
INCH
T1C0.0157
T2C0.0315
T3C0.0598
%
G90
G05
T1
X3.15Y-4.85
X3.8Y-4.85
X4.45Y-4.85
X5.05Y-4.85
X5.45Y-3.7
X5.45Y-3.7
X5.45Y-4.15
X5.45Y-4.6
T2
X3.15Y-3.45
X3.15Y-3.85
X3.15Y-3.95
X3.15Y-4.35
X3.15Y-4.45
X3.15Y-4.85
X3.8Y-3.45
X3.8Y-3.85
X3.8Y-3.95
X3.8Y-4.35
X3.8Y-4.45
X3.8Y-4.85
X4.45Y-3.45
X4.45Y-3.85
X4.45Y-3.95
X4.45Y-4.35
X4.45Y-4.45
X4.45Y-4.85
X5.05Y-3.45
X5.05Y-3.85
X5.05Y-3.95
X5.05Y-4.35
X5.05Y-4.45
X5.05Y-4.85
T3
X2.75Y-3.15
X2.95Y-3.15
X3.15Y-3.15
X3.4Y-3.15
X3.6Y-3.15
X3.8Y-3.15
X4.05Y-3.15
X4.25Y-3.15
X4.45Y-3.15
X4.7Y-3.15
X4.9Y-3.15
X5.1Y-3.15
X5.45Y-3.5
X5.45Y-3.7
X5.45Y-3.95
X5.45Y-4.15
X5.45Y-4.4
X5.45Y-4.6
T0
M30
