M48
; DRILL file {KiCad (5.1.10)-1} date 11/11/21 09:34:39
; FORMAT={-:-/ absolute / inch / decimal}
; #@! TF.CreationDate,2021-11-11T09:34:39-08:00
; #@! TF.GenerationSoftware,Kicad,Pcbnew,(5.1.10)-1
; #@! TF.FileFunction,Plated,1,2,PTH
FMAT,2
INCH
T1C0.0157
T2C0.0315
T3C0.0598
%
G90
G05
T1
X3.85Y-5.0
X4.3Y-5.0
X4.75Y-5.0
X5.3Y-3.65
X5.3Y-4.1
X5.3Y-4.55
X5.3Y-5.0
T2
X3.85Y-3.5
X3.85Y-3.9
X3.85Y-4.05
X3.85Y-4.45
X3.85Y-4.6
X3.85Y-5.0
X4.3Y-3.5
X4.3Y-3.9
X4.3Y-4.05
X4.3Y-4.45
X4.3Y-4.6
X4.3Y-5.0
X4.75Y-3.5
X4.75Y-3.9
X4.75Y-4.05
X4.75Y-4.45
X4.75Y-4.6
X4.75Y-5.0
T3
X3.65Y-3.15
X3.85Y-3.15
X4.1Y-3.15
X4.3Y-3.15
X4.55Y-3.15
X4.75Y-3.15
X5.05Y-3.15
X5.25Y-3.15
X5.3Y-3.45
X5.3Y-3.65
X5.3Y-3.9
X5.3Y-4.1
X5.3Y-4.35
X5.3Y-4.55
X5.3Y-4.8
X5.3Y-5.0
T0
M30
