%TF.GenerationSoftware,KiCad,Pcbnew,(5.1.10)-1*%
%TF.CreationDate,2021-12-26T17:37:53-08:00*%
%TF.ProjectId,encoder_5v_to_3v,656e636f-6465-4725-9f35-765f746f5f33,rev?*%
%TF.SameCoordinates,Original*%
%TF.FileFunction,Copper,L2,Bot*%
%TF.FilePolarity,Positive*%
%FSLAX46Y46*%
G04 Gerber Fmt 4.6, Leading zero omitted, Abs format (unit mm)*
G04 Created by KiCad (PCBNEW (5.1.10)-1) date 2021-12-26 17:37:53*
%MOMM*%
%LPD*%
G01*
G04 APERTURE LIST*
%TA.AperFunction,ComponentPad*%
%ADD10C,3.000000*%
%TD*%
%TA.AperFunction,ComponentPad*%
%ADD11R,3.000000X3.000000*%
%TD*%
%TA.AperFunction,ComponentPad*%
%ADD12O,1.600000X1.600000*%
%TD*%
%TA.AperFunction,ComponentPad*%
%ADD13C,1.600000*%
%TD*%
%TA.AperFunction,ViaPad*%
%ADD14C,0.800000*%
%TD*%
%TA.AperFunction,Conductor*%
%ADD15C,0.254000*%
%TD*%
%TA.AperFunction,Conductor*%
%ADD16C,0.100000*%
%TD*%
G04 APERTURE END LIST*
D10*
%TO.P,J4,3*%
%TO.N,Net-(J4-Pad3)*%
X80010000Y-80010000D03*
%TO.P,J4,2*%
%TO.N,Net-(J4-Pad2)*%
X74930000Y-80010000D03*
D11*
%TO.P,J4,1*%
%TO.N,GND*%
X69850000Y-80010000D03*
%TD*%
D10*
%TO.P,J3,3*%
%TO.N,Net-(J3-Pad3)*%
X129540000Y-80010000D03*
%TO.P,J3,2*%
%TO.N,Net-(J3-Pad2)*%
X124460000Y-80010000D03*
D11*
%TO.P,J3,1*%
%TO.N,GND*%
X119380000Y-80010000D03*
%TD*%
D10*
%TO.P,J2,3*%
%TO.N,Net-(J2-Pad3)*%
X113030000Y-80010000D03*
%TO.P,J2,2*%
%TO.N,Net-(J2-Pad2)*%
X107950000Y-80010000D03*
D11*
%TO.P,J2,1*%
%TO.N,GND*%
X102870000Y-80010000D03*
%TD*%
D10*
%TO.P,J1,3*%
%TO.N,Net-(J1-Pad3)*%
X96520000Y-80010000D03*
%TO.P,J1,2*%
%TO.N,Net-(J1-Pad2)*%
X91440000Y-80010000D03*
D11*
%TO.P,J1,1*%
%TO.N,GND*%
X86360000Y-80010000D03*
%TD*%
D12*
%TO.P,R12,2*%
%TO.N,GND*%
X80010000Y-123190000D03*
D13*
%TO.P,R12,1*%
%TO.N,Net-(R11-Pad2)*%
X80010000Y-113030000D03*
%TD*%
D12*
%TO.P,R11,2*%
%TO.N,Net-(R11-Pad2)*%
X80010000Y-110490000D03*
D13*
%TO.P,R11,1*%
%TO.N,Net-(J4-Pad2)*%
X80010000Y-100330000D03*
%TD*%
D12*
%TO.P,R10,2*%
%TO.N,Net-(J4-Pad2)*%
X80010000Y-97790000D03*
D13*
%TO.P,R10,1*%
%TO.N,Net-(J4-Pad3)*%
X80010000Y-87630000D03*
%TD*%
D12*
%TO.P,R1,2*%
%TO.N,Net-(J1-Pad2)*%
X96520000Y-97790000D03*
D13*
%TO.P,R1,1*%
%TO.N,Net-(J1-Pad3)*%
X96520000Y-87630000D03*
%TD*%
D12*
%TO.P,R9,2*%
%TO.N,GND*%
X128270000Y-123190000D03*
D13*
%TO.P,R9,1*%
%TO.N,Net-(R8-Pad2)*%
X128270000Y-113030000D03*
%TD*%
D12*
%TO.P,R8,2*%
%TO.N,Net-(R8-Pad2)*%
X128270000Y-110490000D03*
D13*
%TO.P,R8,1*%
%TO.N,Net-(J3-Pad2)*%
X128270000Y-100330000D03*
%TD*%
D12*
%TO.P,R7,2*%
%TO.N,Net-(J3-Pad2)*%
X128270000Y-97790000D03*
D13*
%TO.P,R7,1*%
%TO.N,Net-(J3-Pad3)*%
X128270000Y-87630000D03*
%TD*%
D12*
%TO.P,R6,2*%
%TO.N,GND*%
X113030000Y-123190000D03*
D13*
%TO.P,R6,1*%
%TO.N,Net-(R5-Pad2)*%
X113030000Y-113030000D03*
%TD*%
D12*
%TO.P,R5,2*%
%TO.N,Net-(R5-Pad2)*%
X113030000Y-110490000D03*
D13*
%TO.P,R5,1*%
%TO.N,Net-(J2-Pad2)*%
X113030000Y-100330000D03*
%TD*%
D12*
%TO.P,R4,2*%
%TO.N,Net-(J2-Pad2)*%
X113030000Y-97790000D03*
D13*
%TO.P,R4,1*%
%TO.N,Net-(J2-Pad3)*%
X113030000Y-87630000D03*
%TD*%
D12*
%TO.P,R3,2*%
%TO.N,Net-(R2-Pad2)*%
X96520000Y-113030000D03*
D13*
%TO.P,R3,1*%
%TO.N,GND*%
X96520000Y-123190000D03*
%TD*%
D12*
%TO.P,R2,2*%
%TO.N,Net-(R2-Pad2)*%
X96520000Y-110490000D03*
D13*
%TO.P,R2,1*%
%TO.N,Net-(J1-Pad2)*%
X96520000Y-100330000D03*
%TD*%
D11*
%TO.P,J7,1*%
%TO.N,Net-(J5-Pad1)*%
X138430000Y-88900000D03*
D10*
%TO.P,J7,2*%
%TO.N,GND*%
X138430000Y-93980000D03*
%TD*%
%TO.P,J5,2*%
%TO.N,GND*%
X138430000Y-116840000D03*
D11*
%TO.P,J5,1*%
%TO.N,Net-(J5-Pad1)*%
X138430000Y-111760000D03*
%TD*%
%TO.P,J6,1*%
%TO.N,Net-(J5-Pad1)*%
X138430000Y-100330000D03*
D10*
%TO.P,J6,2*%
%TO.N,GND*%
X138430000Y-105410000D03*
%TD*%
D14*
%TO.N,GND*%
X138430000Y-116840000D03*
X138430000Y-105410000D03*
X138430000Y-93980000D03*
X138430000Y-93980000D03*
X80010000Y-123190000D03*
X96520000Y-123190000D03*
X113030000Y-123190000D03*
X128270000Y-123190000D03*
%TD*%
D15*
%TO.N,GND*%
X144120001Y-125070000D02*
X66700000Y-125070000D01*
X66700000Y-123539040D01*
X78618091Y-123539040D01*
X78712930Y-123803881D01*
X78857615Y-124045131D01*
X79046586Y-124253519D01*
X79272580Y-124421037D01*
X79526913Y-124541246D01*
X79660961Y-124581904D01*
X79883000Y-124459915D01*
X79883000Y-123317000D01*
X80137000Y-123317000D01*
X80137000Y-124459915D01*
X80359039Y-124581904D01*
X80493087Y-124541246D01*
X80747420Y-124421037D01*
X80973414Y-124253519D01*
X81037632Y-124182702D01*
X95706903Y-124182702D01*
X95778486Y-124426671D01*
X96033996Y-124547571D01*
X96308184Y-124616300D01*
X96590512Y-124630217D01*
X96870130Y-124588787D01*
X97136292Y-124493603D01*
X97261514Y-124426671D01*
X97333097Y-124182702D01*
X96520000Y-123369605D01*
X95706903Y-124182702D01*
X81037632Y-124182702D01*
X81162385Y-124045131D01*
X81307070Y-123803881D01*
X81401909Y-123539040D01*
X81280624Y-123317000D01*
X80137000Y-123317000D01*
X79883000Y-123317000D01*
X78739376Y-123317000D01*
X78618091Y-123539040D01*
X66700000Y-123539040D01*
X66700000Y-123260512D01*
X95079783Y-123260512D01*
X95121213Y-123540130D01*
X95216397Y-123806292D01*
X95283329Y-123931514D01*
X95527298Y-124003097D01*
X96340395Y-123190000D01*
X96699605Y-123190000D01*
X97512702Y-124003097D01*
X97756671Y-123931514D01*
X97877571Y-123676004D01*
X97911902Y-123539040D01*
X111638091Y-123539040D01*
X111732930Y-123803881D01*
X111877615Y-124045131D01*
X112066586Y-124253519D01*
X112292580Y-124421037D01*
X112546913Y-124541246D01*
X112680961Y-124581904D01*
X112903000Y-124459915D01*
X112903000Y-123317000D01*
X113157000Y-123317000D01*
X113157000Y-124459915D01*
X113379039Y-124581904D01*
X113513087Y-124541246D01*
X113767420Y-124421037D01*
X113993414Y-124253519D01*
X114182385Y-124045131D01*
X114327070Y-123803881D01*
X114421909Y-123539040D01*
X126878091Y-123539040D01*
X126972930Y-123803881D01*
X127117615Y-124045131D01*
X127306586Y-124253519D01*
X127532580Y-124421037D01*
X127786913Y-124541246D01*
X127920961Y-124581904D01*
X128143000Y-124459915D01*
X128143000Y-123317000D01*
X128397000Y-123317000D01*
X128397000Y-124459915D01*
X128619039Y-124581904D01*
X128753087Y-124541246D01*
X129007420Y-124421037D01*
X129233414Y-124253519D01*
X129422385Y-124045131D01*
X129567070Y-123803881D01*
X129661909Y-123539040D01*
X129540624Y-123317000D01*
X128397000Y-123317000D01*
X128143000Y-123317000D01*
X126999376Y-123317000D01*
X126878091Y-123539040D01*
X114421909Y-123539040D01*
X114300624Y-123317000D01*
X113157000Y-123317000D01*
X112903000Y-123317000D01*
X111759376Y-123317000D01*
X111638091Y-123539040D01*
X97911902Y-123539040D01*
X97946300Y-123401816D01*
X97960217Y-123119488D01*
X97918949Y-122840960D01*
X111638091Y-122840960D01*
X111759376Y-123063000D01*
X112903000Y-123063000D01*
X112903000Y-121920085D01*
X113157000Y-121920085D01*
X113157000Y-123063000D01*
X114300624Y-123063000D01*
X114421909Y-122840960D01*
X126878091Y-122840960D01*
X126999376Y-123063000D01*
X128143000Y-123063000D01*
X128143000Y-121920085D01*
X128397000Y-121920085D01*
X128397000Y-123063000D01*
X129540624Y-123063000D01*
X129661909Y-122840960D01*
X129567070Y-122576119D01*
X129422385Y-122334869D01*
X129233414Y-122126481D01*
X129007420Y-121958963D01*
X128753087Y-121838754D01*
X128619039Y-121798096D01*
X128397000Y-121920085D01*
X128143000Y-121920085D01*
X127920961Y-121798096D01*
X127786913Y-121838754D01*
X127532580Y-121958963D01*
X127306586Y-122126481D01*
X127117615Y-122334869D01*
X126972930Y-122576119D01*
X126878091Y-122840960D01*
X114421909Y-122840960D01*
X114327070Y-122576119D01*
X114182385Y-122334869D01*
X113993414Y-122126481D01*
X113767420Y-121958963D01*
X113513087Y-121838754D01*
X113379039Y-121798096D01*
X113157000Y-121920085D01*
X112903000Y-121920085D01*
X112680961Y-121798096D01*
X112546913Y-121838754D01*
X112292580Y-121958963D01*
X112066586Y-122126481D01*
X111877615Y-122334869D01*
X111732930Y-122576119D01*
X111638091Y-122840960D01*
X97918949Y-122840960D01*
X97918787Y-122839870D01*
X97823603Y-122573708D01*
X97756671Y-122448486D01*
X97512702Y-122376903D01*
X96699605Y-123190000D01*
X96340395Y-123190000D01*
X95527298Y-122376903D01*
X95283329Y-122448486D01*
X95162429Y-122703996D01*
X95093700Y-122978184D01*
X95079783Y-123260512D01*
X66700000Y-123260512D01*
X66700000Y-122840960D01*
X78618091Y-122840960D01*
X78739376Y-123063000D01*
X79883000Y-123063000D01*
X79883000Y-121920085D01*
X80137000Y-121920085D01*
X80137000Y-123063000D01*
X81280624Y-123063000D01*
X81401909Y-122840960D01*
X81307070Y-122576119D01*
X81162385Y-122334869D01*
X81037633Y-122197298D01*
X95706903Y-122197298D01*
X96520000Y-123010395D01*
X97333097Y-122197298D01*
X97261514Y-121953329D01*
X97006004Y-121832429D01*
X96731816Y-121763700D01*
X96449488Y-121749783D01*
X96169870Y-121791213D01*
X95903708Y-121886397D01*
X95778486Y-121953329D01*
X95706903Y-122197298D01*
X81037633Y-122197298D01*
X80973414Y-122126481D01*
X80747420Y-121958963D01*
X80493087Y-121838754D01*
X80359039Y-121798096D01*
X80137000Y-121920085D01*
X79883000Y-121920085D01*
X79660961Y-121798096D01*
X79526913Y-121838754D01*
X79272580Y-121958963D01*
X79046586Y-122126481D01*
X78857615Y-122334869D01*
X78712930Y-122576119D01*
X78618091Y-122840960D01*
X66700000Y-122840960D01*
X66700000Y-118331653D01*
X137117952Y-118331653D01*
X137273962Y-118647214D01*
X137648745Y-118838020D01*
X138053551Y-118952044D01*
X138472824Y-118984902D01*
X138890451Y-118935334D01*
X139290383Y-118805243D01*
X139586038Y-118647214D01*
X139742048Y-118331653D01*
X138430000Y-117019605D01*
X137117952Y-118331653D01*
X66700000Y-118331653D01*
X66700000Y-116882824D01*
X136285098Y-116882824D01*
X136334666Y-117300451D01*
X136464757Y-117700383D01*
X136622786Y-117996038D01*
X136938347Y-118152048D01*
X138250395Y-116840000D01*
X138609605Y-116840000D01*
X139921653Y-118152048D01*
X140237214Y-117996038D01*
X140428020Y-117621255D01*
X140542044Y-117216449D01*
X140574902Y-116797176D01*
X140525334Y-116379549D01*
X140395243Y-115979617D01*
X140237214Y-115683962D01*
X139921653Y-115527952D01*
X138609605Y-116840000D01*
X138250395Y-116840000D01*
X136938347Y-115527952D01*
X136622786Y-115683962D01*
X136431980Y-116058745D01*
X136317956Y-116463551D01*
X136285098Y-116882824D01*
X66700000Y-116882824D01*
X66700000Y-115348347D01*
X137117952Y-115348347D01*
X138430000Y-116660395D01*
X139742048Y-115348347D01*
X139586038Y-115032786D01*
X139211255Y-114841980D01*
X138806449Y-114727956D01*
X138387176Y-114695098D01*
X137969549Y-114744666D01*
X137569617Y-114874757D01*
X137273962Y-115032786D01*
X137117952Y-115348347D01*
X66700000Y-115348347D01*
X66700000Y-110348665D01*
X78575000Y-110348665D01*
X78575000Y-110631335D01*
X78630147Y-110908574D01*
X78738320Y-111169727D01*
X78895363Y-111404759D01*
X79095241Y-111604637D01*
X79327759Y-111760000D01*
X79095241Y-111915363D01*
X78895363Y-112115241D01*
X78738320Y-112350273D01*
X78630147Y-112611426D01*
X78575000Y-112888665D01*
X78575000Y-113171335D01*
X78630147Y-113448574D01*
X78738320Y-113709727D01*
X78895363Y-113944759D01*
X79095241Y-114144637D01*
X79330273Y-114301680D01*
X79591426Y-114409853D01*
X79868665Y-114465000D01*
X80151335Y-114465000D01*
X80428574Y-114409853D01*
X80689727Y-114301680D01*
X80924759Y-114144637D01*
X81124637Y-113944759D01*
X81281680Y-113709727D01*
X81389853Y-113448574D01*
X81445000Y-113171335D01*
X81445000Y-112888665D01*
X81389853Y-112611426D01*
X81281680Y-112350273D01*
X81124637Y-112115241D01*
X80924759Y-111915363D01*
X80692241Y-111760000D01*
X80924759Y-111604637D01*
X81124637Y-111404759D01*
X81281680Y-111169727D01*
X81389853Y-110908574D01*
X81445000Y-110631335D01*
X81445000Y-110348665D01*
X95085000Y-110348665D01*
X95085000Y-110631335D01*
X95140147Y-110908574D01*
X95248320Y-111169727D01*
X95405363Y-111404759D01*
X95605241Y-111604637D01*
X95837759Y-111760000D01*
X95605241Y-111915363D01*
X95405363Y-112115241D01*
X95248320Y-112350273D01*
X95140147Y-112611426D01*
X95085000Y-112888665D01*
X95085000Y-113171335D01*
X95140147Y-113448574D01*
X95248320Y-113709727D01*
X95405363Y-113944759D01*
X95605241Y-114144637D01*
X95840273Y-114301680D01*
X96101426Y-114409853D01*
X96378665Y-114465000D01*
X96661335Y-114465000D01*
X96938574Y-114409853D01*
X97199727Y-114301680D01*
X97434759Y-114144637D01*
X97634637Y-113944759D01*
X97791680Y-113709727D01*
X97899853Y-113448574D01*
X97955000Y-113171335D01*
X97955000Y-112888665D01*
X97899853Y-112611426D01*
X97791680Y-112350273D01*
X97634637Y-112115241D01*
X97434759Y-111915363D01*
X97202241Y-111760000D01*
X97434759Y-111604637D01*
X97634637Y-111404759D01*
X97791680Y-111169727D01*
X97899853Y-110908574D01*
X97955000Y-110631335D01*
X97955000Y-110348665D01*
X111595000Y-110348665D01*
X111595000Y-110631335D01*
X111650147Y-110908574D01*
X111758320Y-111169727D01*
X111915363Y-111404759D01*
X112115241Y-111604637D01*
X112347759Y-111760000D01*
X112115241Y-111915363D01*
X111915363Y-112115241D01*
X111758320Y-112350273D01*
X111650147Y-112611426D01*
X111595000Y-112888665D01*
X111595000Y-113171335D01*
X111650147Y-113448574D01*
X111758320Y-113709727D01*
X111915363Y-113944759D01*
X112115241Y-114144637D01*
X112350273Y-114301680D01*
X112611426Y-114409853D01*
X112888665Y-114465000D01*
X113171335Y-114465000D01*
X113448574Y-114409853D01*
X113709727Y-114301680D01*
X113944759Y-114144637D01*
X114144637Y-113944759D01*
X114301680Y-113709727D01*
X114409853Y-113448574D01*
X114465000Y-113171335D01*
X114465000Y-112888665D01*
X114409853Y-112611426D01*
X114301680Y-112350273D01*
X114144637Y-112115241D01*
X113944759Y-111915363D01*
X113712241Y-111760000D01*
X113944759Y-111604637D01*
X114144637Y-111404759D01*
X114301680Y-111169727D01*
X114409853Y-110908574D01*
X114465000Y-110631335D01*
X114465000Y-110348665D01*
X126835000Y-110348665D01*
X126835000Y-110631335D01*
X126890147Y-110908574D01*
X126998320Y-111169727D01*
X127155363Y-111404759D01*
X127355241Y-111604637D01*
X127587759Y-111760000D01*
X127355241Y-111915363D01*
X127155363Y-112115241D01*
X126998320Y-112350273D01*
X126890147Y-112611426D01*
X126835000Y-112888665D01*
X126835000Y-113171335D01*
X126890147Y-113448574D01*
X126998320Y-113709727D01*
X127155363Y-113944759D01*
X127355241Y-114144637D01*
X127590273Y-114301680D01*
X127851426Y-114409853D01*
X128128665Y-114465000D01*
X128411335Y-114465000D01*
X128688574Y-114409853D01*
X128949727Y-114301680D01*
X129184759Y-114144637D01*
X129384637Y-113944759D01*
X129541680Y-113709727D01*
X129649853Y-113448574D01*
X129705000Y-113171335D01*
X129705000Y-112888665D01*
X129649853Y-112611426D01*
X129541680Y-112350273D01*
X129384637Y-112115241D01*
X129184759Y-111915363D01*
X128952241Y-111760000D01*
X129184759Y-111604637D01*
X129384637Y-111404759D01*
X129541680Y-111169727D01*
X129649853Y-110908574D01*
X129705000Y-110631335D01*
X129705000Y-110348665D01*
X129687364Y-110260000D01*
X136291928Y-110260000D01*
X136291928Y-113260000D01*
X136304188Y-113384482D01*
X136340498Y-113504180D01*
X136399463Y-113614494D01*
X136478815Y-113711185D01*
X136575506Y-113790537D01*
X136685820Y-113849502D01*
X136805518Y-113885812D01*
X136930000Y-113898072D01*
X139930000Y-113898072D01*
X140054482Y-113885812D01*
X140174180Y-113849502D01*
X140284494Y-113790537D01*
X140381185Y-113711185D01*
X140460537Y-113614494D01*
X140519502Y-113504180D01*
X140555812Y-113384482D01*
X140568072Y-113260000D01*
X140568072Y-110260000D01*
X140555812Y-110135518D01*
X140519502Y-110015820D01*
X140460537Y-109905506D01*
X140381185Y-109808815D01*
X140284494Y-109729463D01*
X140174180Y-109670498D01*
X140054482Y-109634188D01*
X139930000Y-109621928D01*
X136930000Y-109621928D01*
X136805518Y-109634188D01*
X136685820Y-109670498D01*
X136575506Y-109729463D01*
X136478815Y-109808815D01*
X136399463Y-109905506D01*
X136340498Y-110015820D01*
X136304188Y-110135518D01*
X136291928Y-110260000D01*
X129687364Y-110260000D01*
X129649853Y-110071426D01*
X129541680Y-109810273D01*
X129384637Y-109575241D01*
X129184759Y-109375363D01*
X128949727Y-109218320D01*
X128688574Y-109110147D01*
X128411335Y-109055000D01*
X128128665Y-109055000D01*
X127851426Y-109110147D01*
X127590273Y-109218320D01*
X127355241Y-109375363D01*
X127155363Y-109575241D01*
X126998320Y-109810273D01*
X126890147Y-110071426D01*
X126835000Y-110348665D01*
X114465000Y-110348665D01*
X114409853Y-110071426D01*
X114301680Y-109810273D01*
X114144637Y-109575241D01*
X113944759Y-109375363D01*
X113709727Y-109218320D01*
X113448574Y-109110147D01*
X113171335Y-109055000D01*
X112888665Y-109055000D01*
X112611426Y-109110147D01*
X112350273Y-109218320D01*
X112115241Y-109375363D01*
X111915363Y-109575241D01*
X111758320Y-109810273D01*
X111650147Y-110071426D01*
X111595000Y-110348665D01*
X97955000Y-110348665D01*
X97899853Y-110071426D01*
X97791680Y-109810273D01*
X97634637Y-109575241D01*
X97434759Y-109375363D01*
X97199727Y-109218320D01*
X96938574Y-109110147D01*
X96661335Y-109055000D01*
X96378665Y-109055000D01*
X96101426Y-109110147D01*
X95840273Y-109218320D01*
X95605241Y-109375363D01*
X95405363Y-109575241D01*
X95248320Y-109810273D01*
X95140147Y-110071426D01*
X95085000Y-110348665D01*
X81445000Y-110348665D01*
X81389853Y-110071426D01*
X81281680Y-109810273D01*
X81124637Y-109575241D01*
X80924759Y-109375363D01*
X80689727Y-109218320D01*
X80428574Y-109110147D01*
X80151335Y-109055000D01*
X79868665Y-109055000D01*
X79591426Y-109110147D01*
X79330273Y-109218320D01*
X79095241Y-109375363D01*
X78895363Y-109575241D01*
X78738320Y-109810273D01*
X78630147Y-110071426D01*
X78575000Y-110348665D01*
X66700000Y-110348665D01*
X66700000Y-106901653D01*
X137117952Y-106901653D01*
X137273962Y-107217214D01*
X137648745Y-107408020D01*
X138053551Y-107522044D01*
X138472824Y-107554902D01*
X138890451Y-107505334D01*
X139290383Y-107375243D01*
X139586038Y-107217214D01*
X139742048Y-106901653D01*
X138430000Y-105589605D01*
X137117952Y-106901653D01*
X66700000Y-106901653D01*
X66700000Y-105452824D01*
X136285098Y-105452824D01*
X136334666Y-105870451D01*
X136464757Y-106270383D01*
X136622786Y-106566038D01*
X136938347Y-106722048D01*
X138250395Y-105410000D01*
X138609605Y-105410000D01*
X139921653Y-106722048D01*
X140237214Y-106566038D01*
X140428020Y-106191255D01*
X140542044Y-105786449D01*
X140574902Y-105367176D01*
X140525334Y-104949549D01*
X140395243Y-104549617D01*
X140237214Y-104253962D01*
X139921653Y-104097952D01*
X138609605Y-105410000D01*
X138250395Y-105410000D01*
X136938347Y-104097952D01*
X136622786Y-104253962D01*
X136431980Y-104628745D01*
X136317956Y-105033551D01*
X136285098Y-105452824D01*
X66700000Y-105452824D01*
X66700000Y-103918347D01*
X137117952Y-103918347D01*
X138430000Y-105230395D01*
X139742048Y-103918347D01*
X139586038Y-103602786D01*
X139211255Y-103411980D01*
X138806449Y-103297956D01*
X138387176Y-103265098D01*
X137969549Y-103314666D01*
X137569617Y-103444757D01*
X137273962Y-103602786D01*
X137117952Y-103918347D01*
X66700000Y-103918347D01*
X66700000Y-97648665D01*
X78575000Y-97648665D01*
X78575000Y-97931335D01*
X78630147Y-98208574D01*
X78738320Y-98469727D01*
X78895363Y-98704759D01*
X79095241Y-98904637D01*
X79327759Y-99060000D01*
X79095241Y-99215363D01*
X78895363Y-99415241D01*
X78738320Y-99650273D01*
X78630147Y-99911426D01*
X78575000Y-100188665D01*
X78575000Y-100471335D01*
X78630147Y-100748574D01*
X78738320Y-101009727D01*
X78895363Y-101244759D01*
X79095241Y-101444637D01*
X79330273Y-101601680D01*
X79591426Y-101709853D01*
X79868665Y-101765000D01*
X80151335Y-101765000D01*
X80428574Y-101709853D01*
X80689727Y-101601680D01*
X80924759Y-101444637D01*
X81124637Y-101244759D01*
X81281680Y-101009727D01*
X81389853Y-100748574D01*
X81445000Y-100471335D01*
X81445000Y-100188665D01*
X81389853Y-99911426D01*
X81281680Y-99650273D01*
X81124637Y-99415241D01*
X80924759Y-99215363D01*
X80692241Y-99060000D01*
X80924759Y-98904637D01*
X81124637Y-98704759D01*
X81281680Y-98469727D01*
X81389853Y-98208574D01*
X81445000Y-97931335D01*
X81445000Y-97648665D01*
X95085000Y-97648665D01*
X95085000Y-97931335D01*
X95140147Y-98208574D01*
X95248320Y-98469727D01*
X95405363Y-98704759D01*
X95605241Y-98904637D01*
X95837759Y-99060000D01*
X95605241Y-99215363D01*
X95405363Y-99415241D01*
X95248320Y-99650273D01*
X95140147Y-99911426D01*
X95085000Y-100188665D01*
X95085000Y-100471335D01*
X95140147Y-100748574D01*
X95248320Y-101009727D01*
X95405363Y-101244759D01*
X95605241Y-101444637D01*
X95840273Y-101601680D01*
X96101426Y-101709853D01*
X96378665Y-101765000D01*
X96661335Y-101765000D01*
X96938574Y-101709853D01*
X97199727Y-101601680D01*
X97434759Y-101444637D01*
X97634637Y-101244759D01*
X97791680Y-101009727D01*
X97899853Y-100748574D01*
X97955000Y-100471335D01*
X97955000Y-100188665D01*
X97899853Y-99911426D01*
X97791680Y-99650273D01*
X97634637Y-99415241D01*
X97434759Y-99215363D01*
X97202241Y-99060000D01*
X97434759Y-98904637D01*
X97634637Y-98704759D01*
X97791680Y-98469727D01*
X97899853Y-98208574D01*
X97955000Y-97931335D01*
X97955000Y-97648665D01*
X111595000Y-97648665D01*
X111595000Y-97931335D01*
X111650147Y-98208574D01*
X111758320Y-98469727D01*
X111915363Y-98704759D01*
X112115241Y-98904637D01*
X112347759Y-99060000D01*
X112115241Y-99215363D01*
X111915363Y-99415241D01*
X111758320Y-99650273D01*
X111650147Y-99911426D01*
X111595000Y-100188665D01*
X111595000Y-100471335D01*
X111650147Y-100748574D01*
X111758320Y-101009727D01*
X111915363Y-101244759D01*
X112115241Y-101444637D01*
X112350273Y-101601680D01*
X112611426Y-101709853D01*
X112888665Y-101765000D01*
X113171335Y-101765000D01*
X113448574Y-101709853D01*
X113709727Y-101601680D01*
X113944759Y-101444637D01*
X114144637Y-101244759D01*
X114301680Y-101009727D01*
X114409853Y-100748574D01*
X114465000Y-100471335D01*
X114465000Y-100188665D01*
X114409853Y-99911426D01*
X114301680Y-99650273D01*
X114144637Y-99415241D01*
X113944759Y-99215363D01*
X113712241Y-99060000D01*
X113944759Y-98904637D01*
X114144637Y-98704759D01*
X114301680Y-98469727D01*
X114409853Y-98208574D01*
X114465000Y-97931335D01*
X114465000Y-97648665D01*
X126835000Y-97648665D01*
X126835000Y-97931335D01*
X126890147Y-98208574D01*
X126998320Y-98469727D01*
X127155363Y-98704759D01*
X127355241Y-98904637D01*
X127587759Y-99060000D01*
X127355241Y-99215363D01*
X127155363Y-99415241D01*
X126998320Y-99650273D01*
X126890147Y-99911426D01*
X126835000Y-100188665D01*
X126835000Y-100471335D01*
X126890147Y-100748574D01*
X126998320Y-101009727D01*
X127155363Y-101244759D01*
X127355241Y-101444637D01*
X127590273Y-101601680D01*
X127851426Y-101709853D01*
X128128665Y-101765000D01*
X128411335Y-101765000D01*
X128688574Y-101709853D01*
X128949727Y-101601680D01*
X129184759Y-101444637D01*
X129384637Y-101244759D01*
X129541680Y-101009727D01*
X129649853Y-100748574D01*
X129705000Y-100471335D01*
X129705000Y-100188665D01*
X129649853Y-99911426D01*
X129541680Y-99650273D01*
X129384637Y-99415241D01*
X129184759Y-99215363D01*
X128952241Y-99060000D01*
X129184759Y-98904637D01*
X129259396Y-98830000D01*
X136291928Y-98830000D01*
X136291928Y-101830000D01*
X136304188Y-101954482D01*
X136340498Y-102074180D01*
X136399463Y-102184494D01*
X136478815Y-102281185D01*
X136575506Y-102360537D01*
X136685820Y-102419502D01*
X136805518Y-102455812D01*
X136930000Y-102468072D01*
X139930000Y-102468072D01*
X140054482Y-102455812D01*
X140174180Y-102419502D01*
X140284494Y-102360537D01*
X140381185Y-102281185D01*
X140460537Y-102184494D01*
X140519502Y-102074180D01*
X140555812Y-101954482D01*
X140568072Y-101830000D01*
X140568072Y-98830000D01*
X140555812Y-98705518D01*
X140519502Y-98585820D01*
X140460537Y-98475506D01*
X140381185Y-98378815D01*
X140284494Y-98299463D01*
X140174180Y-98240498D01*
X140054482Y-98204188D01*
X139930000Y-98191928D01*
X136930000Y-98191928D01*
X136805518Y-98204188D01*
X136685820Y-98240498D01*
X136575506Y-98299463D01*
X136478815Y-98378815D01*
X136399463Y-98475506D01*
X136340498Y-98585820D01*
X136304188Y-98705518D01*
X136291928Y-98830000D01*
X129259396Y-98830000D01*
X129384637Y-98704759D01*
X129541680Y-98469727D01*
X129649853Y-98208574D01*
X129705000Y-97931335D01*
X129705000Y-97648665D01*
X129649853Y-97371426D01*
X129541680Y-97110273D01*
X129384637Y-96875241D01*
X129184759Y-96675363D01*
X128949727Y-96518320D01*
X128688574Y-96410147D01*
X128411335Y-96355000D01*
X128128665Y-96355000D01*
X127851426Y-96410147D01*
X127590273Y-96518320D01*
X127355241Y-96675363D01*
X127155363Y-96875241D01*
X126998320Y-97110273D01*
X126890147Y-97371426D01*
X126835000Y-97648665D01*
X114465000Y-97648665D01*
X114409853Y-97371426D01*
X114301680Y-97110273D01*
X114144637Y-96875241D01*
X113944759Y-96675363D01*
X113709727Y-96518320D01*
X113448574Y-96410147D01*
X113171335Y-96355000D01*
X112888665Y-96355000D01*
X112611426Y-96410147D01*
X112350273Y-96518320D01*
X112115241Y-96675363D01*
X111915363Y-96875241D01*
X111758320Y-97110273D01*
X111650147Y-97371426D01*
X111595000Y-97648665D01*
X97955000Y-97648665D01*
X97899853Y-97371426D01*
X97791680Y-97110273D01*
X97634637Y-96875241D01*
X97434759Y-96675363D01*
X97199727Y-96518320D01*
X96938574Y-96410147D01*
X96661335Y-96355000D01*
X96378665Y-96355000D01*
X96101426Y-96410147D01*
X95840273Y-96518320D01*
X95605241Y-96675363D01*
X95405363Y-96875241D01*
X95248320Y-97110273D01*
X95140147Y-97371426D01*
X95085000Y-97648665D01*
X81445000Y-97648665D01*
X81389853Y-97371426D01*
X81281680Y-97110273D01*
X81124637Y-96875241D01*
X80924759Y-96675363D01*
X80689727Y-96518320D01*
X80428574Y-96410147D01*
X80151335Y-96355000D01*
X79868665Y-96355000D01*
X79591426Y-96410147D01*
X79330273Y-96518320D01*
X79095241Y-96675363D01*
X78895363Y-96875241D01*
X78738320Y-97110273D01*
X78630147Y-97371426D01*
X78575000Y-97648665D01*
X66700000Y-97648665D01*
X66700000Y-95471653D01*
X137117952Y-95471653D01*
X137273962Y-95787214D01*
X137648745Y-95978020D01*
X138053551Y-96092044D01*
X138472824Y-96124902D01*
X138890451Y-96075334D01*
X139290383Y-95945243D01*
X139586038Y-95787214D01*
X139742048Y-95471653D01*
X138430000Y-94159605D01*
X137117952Y-95471653D01*
X66700000Y-95471653D01*
X66700000Y-94022824D01*
X136285098Y-94022824D01*
X136334666Y-94440451D01*
X136464757Y-94840383D01*
X136622786Y-95136038D01*
X136938347Y-95292048D01*
X138250395Y-93980000D01*
X138609605Y-93980000D01*
X139921653Y-95292048D01*
X140237214Y-95136038D01*
X140428020Y-94761255D01*
X140542044Y-94356449D01*
X140574902Y-93937176D01*
X140525334Y-93519549D01*
X140395243Y-93119617D01*
X140237214Y-92823962D01*
X139921653Y-92667952D01*
X138609605Y-93980000D01*
X138250395Y-93980000D01*
X136938347Y-92667952D01*
X136622786Y-92823962D01*
X136431980Y-93198745D01*
X136317956Y-93603551D01*
X136285098Y-94022824D01*
X66700000Y-94022824D01*
X66700000Y-92488347D01*
X137117952Y-92488347D01*
X138430000Y-93800395D01*
X139742048Y-92488347D01*
X139586038Y-92172786D01*
X139211255Y-91981980D01*
X138806449Y-91867956D01*
X138387176Y-91835098D01*
X137969549Y-91884666D01*
X137569617Y-92014757D01*
X137273962Y-92172786D01*
X137117952Y-92488347D01*
X66700000Y-92488347D01*
X66700000Y-87488665D01*
X78575000Y-87488665D01*
X78575000Y-87771335D01*
X78630147Y-88048574D01*
X78738320Y-88309727D01*
X78895363Y-88544759D01*
X79095241Y-88744637D01*
X79330273Y-88901680D01*
X79591426Y-89009853D01*
X79868665Y-89065000D01*
X80151335Y-89065000D01*
X80428574Y-89009853D01*
X80689727Y-88901680D01*
X80924759Y-88744637D01*
X81124637Y-88544759D01*
X81281680Y-88309727D01*
X81389853Y-88048574D01*
X81445000Y-87771335D01*
X81445000Y-87488665D01*
X95085000Y-87488665D01*
X95085000Y-87771335D01*
X95140147Y-88048574D01*
X95248320Y-88309727D01*
X95405363Y-88544759D01*
X95605241Y-88744637D01*
X95840273Y-88901680D01*
X96101426Y-89009853D01*
X96378665Y-89065000D01*
X96661335Y-89065000D01*
X96938574Y-89009853D01*
X97199727Y-88901680D01*
X97434759Y-88744637D01*
X97634637Y-88544759D01*
X97791680Y-88309727D01*
X97899853Y-88048574D01*
X97955000Y-87771335D01*
X97955000Y-87488665D01*
X111595000Y-87488665D01*
X111595000Y-87771335D01*
X111650147Y-88048574D01*
X111758320Y-88309727D01*
X111915363Y-88544759D01*
X112115241Y-88744637D01*
X112350273Y-88901680D01*
X112611426Y-89009853D01*
X112888665Y-89065000D01*
X113171335Y-89065000D01*
X113448574Y-89009853D01*
X113709727Y-88901680D01*
X113944759Y-88744637D01*
X114144637Y-88544759D01*
X114301680Y-88309727D01*
X114409853Y-88048574D01*
X114465000Y-87771335D01*
X114465000Y-87488665D01*
X126835000Y-87488665D01*
X126835000Y-87771335D01*
X126890147Y-88048574D01*
X126998320Y-88309727D01*
X127155363Y-88544759D01*
X127355241Y-88744637D01*
X127590273Y-88901680D01*
X127851426Y-89009853D01*
X128128665Y-89065000D01*
X128411335Y-89065000D01*
X128688574Y-89009853D01*
X128949727Y-88901680D01*
X129184759Y-88744637D01*
X129384637Y-88544759D01*
X129541680Y-88309727D01*
X129649853Y-88048574D01*
X129705000Y-87771335D01*
X129705000Y-87488665D01*
X129687364Y-87400000D01*
X136291928Y-87400000D01*
X136291928Y-90400000D01*
X136304188Y-90524482D01*
X136340498Y-90644180D01*
X136399463Y-90754494D01*
X136478815Y-90851185D01*
X136575506Y-90930537D01*
X136685820Y-90989502D01*
X136805518Y-91025812D01*
X136930000Y-91038072D01*
X139930000Y-91038072D01*
X140054482Y-91025812D01*
X140174180Y-90989502D01*
X140284494Y-90930537D01*
X140381185Y-90851185D01*
X140460537Y-90754494D01*
X140519502Y-90644180D01*
X140555812Y-90524482D01*
X140568072Y-90400000D01*
X140568072Y-87400000D01*
X140555812Y-87275518D01*
X140519502Y-87155820D01*
X140460537Y-87045506D01*
X140381185Y-86948815D01*
X140284494Y-86869463D01*
X140174180Y-86810498D01*
X140054482Y-86774188D01*
X139930000Y-86761928D01*
X136930000Y-86761928D01*
X136805518Y-86774188D01*
X136685820Y-86810498D01*
X136575506Y-86869463D01*
X136478815Y-86948815D01*
X136399463Y-87045506D01*
X136340498Y-87155820D01*
X136304188Y-87275518D01*
X136291928Y-87400000D01*
X129687364Y-87400000D01*
X129649853Y-87211426D01*
X129541680Y-86950273D01*
X129384637Y-86715241D01*
X129184759Y-86515363D01*
X128949727Y-86358320D01*
X128688574Y-86250147D01*
X128411335Y-86195000D01*
X128128665Y-86195000D01*
X127851426Y-86250147D01*
X127590273Y-86358320D01*
X127355241Y-86515363D01*
X127155363Y-86715241D01*
X126998320Y-86950273D01*
X126890147Y-87211426D01*
X126835000Y-87488665D01*
X114465000Y-87488665D01*
X114409853Y-87211426D01*
X114301680Y-86950273D01*
X114144637Y-86715241D01*
X113944759Y-86515363D01*
X113709727Y-86358320D01*
X113448574Y-86250147D01*
X113171335Y-86195000D01*
X112888665Y-86195000D01*
X112611426Y-86250147D01*
X112350273Y-86358320D01*
X112115241Y-86515363D01*
X111915363Y-86715241D01*
X111758320Y-86950273D01*
X111650147Y-87211426D01*
X111595000Y-87488665D01*
X97955000Y-87488665D01*
X97899853Y-87211426D01*
X97791680Y-86950273D01*
X97634637Y-86715241D01*
X97434759Y-86515363D01*
X97199727Y-86358320D01*
X96938574Y-86250147D01*
X96661335Y-86195000D01*
X96378665Y-86195000D01*
X96101426Y-86250147D01*
X95840273Y-86358320D01*
X95605241Y-86515363D01*
X95405363Y-86715241D01*
X95248320Y-86950273D01*
X95140147Y-87211426D01*
X95085000Y-87488665D01*
X81445000Y-87488665D01*
X81389853Y-87211426D01*
X81281680Y-86950273D01*
X81124637Y-86715241D01*
X80924759Y-86515363D01*
X80689727Y-86358320D01*
X80428574Y-86250147D01*
X80151335Y-86195000D01*
X79868665Y-86195000D01*
X79591426Y-86250147D01*
X79330273Y-86358320D01*
X79095241Y-86515363D01*
X78895363Y-86715241D01*
X78738320Y-86950273D01*
X78630147Y-87211426D01*
X78575000Y-87488665D01*
X66700000Y-87488665D01*
X66700000Y-81510000D01*
X67711928Y-81510000D01*
X67724188Y-81634482D01*
X67760498Y-81754180D01*
X67819463Y-81864494D01*
X67898815Y-81961185D01*
X67995506Y-82040537D01*
X68105820Y-82099502D01*
X68225518Y-82135812D01*
X68350000Y-82148072D01*
X69564250Y-82145000D01*
X69723000Y-81986250D01*
X69723000Y-80137000D01*
X69977000Y-80137000D01*
X69977000Y-81986250D01*
X70135750Y-82145000D01*
X71350000Y-82148072D01*
X71474482Y-82135812D01*
X71594180Y-82099502D01*
X71704494Y-82040537D01*
X71801185Y-81961185D01*
X71880537Y-81864494D01*
X71939502Y-81754180D01*
X71975812Y-81634482D01*
X71988072Y-81510000D01*
X71985000Y-80295750D01*
X71826250Y-80137000D01*
X69977000Y-80137000D01*
X69723000Y-80137000D01*
X67873750Y-80137000D01*
X67715000Y-80295750D01*
X67711928Y-81510000D01*
X66700000Y-81510000D01*
X66700000Y-78510000D01*
X67711928Y-78510000D01*
X67715000Y-79724250D01*
X67873750Y-79883000D01*
X69723000Y-79883000D01*
X69723000Y-78033750D01*
X69977000Y-78033750D01*
X69977000Y-79883000D01*
X71826250Y-79883000D01*
X71909529Y-79799721D01*
X72795000Y-79799721D01*
X72795000Y-80220279D01*
X72877047Y-80632756D01*
X73037988Y-81021302D01*
X73271637Y-81370983D01*
X73569017Y-81668363D01*
X73918698Y-81902012D01*
X74307244Y-82062953D01*
X74719721Y-82145000D01*
X75140279Y-82145000D01*
X75552756Y-82062953D01*
X75941302Y-81902012D01*
X76290983Y-81668363D01*
X76588363Y-81370983D01*
X76822012Y-81021302D01*
X76982953Y-80632756D01*
X77065000Y-80220279D01*
X77065000Y-79799721D01*
X77875000Y-79799721D01*
X77875000Y-80220279D01*
X77957047Y-80632756D01*
X78117988Y-81021302D01*
X78351637Y-81370983D01*
X78649017Y-81668363D01*
X78998698Y-81902012D01*
X79387244Y-82062953D01*
X79799721Y-82145000D01*
X80220279Y-82145000D01*
X80632756Y-82062953D01*
X81021302Y-81902012D01*
X81370983Y-81668363D01*
X81529346Y-81510000D01*
X84221928Y-81510000D01*
X84234188Y-81634482D01*
X84270498Y-81754180D01*
X84329463Y-81864494D01*
X84408815Y-81961185D01*
X84505506Y-82040537D01*
X84615820Y-82099502D01*
X84735518Y-82135812D01*
X84860000Y-82148072D01*
X86074250Y-82145000D01*
X86233000Y-81986250D01*
X86233000Y-80137000D01*
X86487000Y-80137000D01*
X86487000Y-81986250D01*
X86645750Y-82145000D01*
X87860000Y-82148072D01*
X87984482Y-82135812D01*
X88104180Y-82099502D01*
X88214494Y-82040537D01*
X88311185Y-81961185D01*
X88390537Y-81864494D01*
X88449502Y-81754180D01*
X88485812Y-81634482D01*
X88498072Y-81510000D01*
X88495000Y-80295750D01*
X88336250Y-80137000D01*
X86487000Y-80137000D01*
X86233000Y-80137000D01*
X84383750Y-80137000D01*
X84225000Y-80295750D01*
X84221928Y-81510000D01*
X81529346Y-81510000D01*
X81668363Y-81370983D01*
X81902012Y-81021302D01*
X82062953Y-80632756D01*
X82145000Y-80220279D01*
X82145000Y-79799721D01*
X82062953Y-79387244D01*
X81902012Y-78998698D01*
X81668363Y-78649017D01*
X81529346Y-78510000D01*
X84221928Y-78510000D01*
X84225000Y-79724250D01*
X84383750Y-79883000D01*
X86233000Y-79883000D01*
X86233000Y-78033750D01*
X86487000Y-78033750D01*
X86487000Y-79883000D01*
X88336250Y-79883000D01*
X88419529Y-79799721D01*
X89305000Y-79799721D01*
X89305000Y-80220279D01*
X89387047Y-80632756D01*
X89547988Y-81021302D01*
X89781637Y-81370983D01*
X90079017Y-81668363D01*
X90428698Y-81902012D01*
X90817244Y-82062953D01*
X91229721Y-82145000D01*
X91650279Y-82145000D01*
X92062756Y-82062953D01*
X92451302Y-81902012D01*
X92800983Y-81668363D01*
X93098363Y-81370983D01*
X93332012Y-81021302D01*
X93492953Y-80632756D01*
X93575000Y-80220279D01*
X93575000Y-79799721D01*
X94385000Y-79799721D01*
X94385000Y-80220279D01*
X94467047Y-80632756D01*
X94627988Y-81021302D01*
X94861637Y-81370983D01*
X95159017Y-81668363D01*
X95508698Y-81902012D01*
X95897244Y-82062953D01*
X96309721Y-82145000D01*
X96730279Y-82145000D01*
X97142756Y-82062953D01*
X97531302Y-81902012D01*
X97880983Y-81668363D01*
X98039346Y-81510000D01*
X100731928Y-81510000D01*
X100744188Y-81634482D01*
X100780498Y-81754180D01*
X100839463Y-81864494D01*
X100918815Y-81961185D01*
X101015506Y-82040537D01*
X101125820Y-82099502D01*
X101245518Y-82135812D01*
X101370000Y-82148072D01*
X102584250Y-82145000D01*
X102743000Y-81986250D01*
X102743000Y-80137000D01*
X102997000Y-80137000D01*
X102997000Y-81986250D01*
X103155750Y-82145000D01*
X104370000Y-82148072D01*
X104494482Y-82135812D01*
X104614180Y-82099502D01*
X104724494Y-82040537D01*
X104821185Y-81961185D01*
X104900537Y-81864494D01*
X104959502Y-81754180D01*
X104995812Y-81634482D01*
X105008072Y-81510000D01*
X105005000Y-80295750D01*
X104846250Y-80137000D01*
X102997000Y-80137000D01*
X102743000Y-80137000D01*
X100893750Y-80137000D01*
X100735000Y-80295750D01*
X100731928Y-81510000D01*
X98039346Y-81510000D01*
X98178363Y-81370983D01*
X98412012Y-81021302D01*
X98572953Y-80632756D01*
X98655000Y-80220279D01*
X98655000Y-79799721D01*
X98572953Y-79387244D01*
X98412012Y-78998698D01*
X98178363Y-78649017D01*
X98039346Y-78510000D01*
X100731928Y-78510000D01*
X100735000Y-79724250D01*
X100893750Y-79883000D01*
X102743000Y-79883000D01*
X102743000Y-78033750D01*
X102997000Y-78033750D01*
X102997000Y-79883000D01*
X104846250Y-79883000D01*
X104929529Y-79799721D01*
X105815000Y-79799721D01*
X105815000Y-80220279D01*
X105897047Y-80632756D01*
X106057988Y-81021302D01*
X106291637Y-81370983D01*
X106589017Y-81668363D01*
X106938698Y-81902012D01*
X107327244Y-82062953D01*
X107739721Y-82145000D01*
X108160279Y-82145000D01*
X108572756Y-82062953D01*
X108961302Y-81902012D01*
X109310983Y-81668363D01*
X109608363Y-81370983D01*
X109842012Y-81021302D01*
X110002953Y-80632756D01*
X110085000Y-80220279D01*
X110085000Y-79799721D01*
X110895000Y-79799721D01*
X110895000Y-80220279D01*
X110977047Y-80632756D01*
X111137988Y-81021302D01*
X111371637Y-81370983D01*
X111669017Y-81668363D01*
X112018698Y-81902012D01*
X112407244Y-82062953D01*
X112819721Y-82145000D01*
X113240279Y-82145000D01*
X113652756Y-82062953D01*
X114041302Y-81902012D01*
X114390983Y-81668363D01*
X114549346Y-81510000D01*
X117241928Y-81510000D01*
X117254188Y-81634482D01*
X117290498Y-81754180D01*
X117349463Y-81864494D01*
X117428815Y-81961185D01*
X117525506Y-82040537D01*
X117635820Y-82099502D01*
X117755518Y-82135812D01*
X117880000Y-82148072D01*
X119094250Y-82145000D01*
X119253000Y-81986250D01*
X119253000Y-80137000D01*
X119507000Y-80137000D01*
X119507000Y-81986250D01*
X119665750Y-82145000D01*
X120880000Y-82148072D01*
X121004482Y-82135812D01*
X121124180Y-82099502D01*
X121234494Y-82040537D01*
X121331185Y-81961185D01*
X121410537Y-81864494D01*
X121469502Y-81754180D01*
X121505812Y-81634482D01*
X121518072Y-81510000D01*
X121515000Y-80295750D01*
X121356250Y-80137000D01*
X119507000Y-80137000D01*
X119253000Y-80137000D01*
X117403750Y-80137000D01*
X117245000Y-80295750D01*
X117241928Y-81510000D01*
X114549346Y-81510000D01*
X114688363Y-81370983D01*
X114922012Y-81021302D01*
X115082953Y-80632756D01*
X115165000Y-80220279D01*
X115165000Y-79799721D01*
X115082953Y-79387244D01*
X114922012Y-78998698D01*
X114688363Y-78649017D01*
X114549346Y-78510000D01*
X117241928Y-78510000D01*
X117245000Y-79724250D01*
X117403750Y-79883000D01*
X119253000Y-79883000D01*
X119253000Y-78033750D01*
X119507000Y-78033750D01*
X119507000Y-79883000D01*
X121356250Y-79883000D01*
X121439529Y-79799721D01*
X122325000Y-79799721D01*
X122325000Y-80220279D01*
X122407047Y-80632756D01*
X122567988Y-81021302D01*
X122801637Y-81370983D01*
X123099017Y-81668363D01*
X123448698Y-81902012D01*
X123837244Y-82062953D01*
X124249721Y-82145000D01*
X124670279Y-82145000D01*
X125082756Y-82062953D01*
X125471302Y-81902012D01*
X125820983Y-81668363D01*
X126118363Y-81370983D01*
X126352012Y-81021302D01*
X126512953Y-80632756D01*
X126595000Y-80220279D01*
X126595000Y-79799721D01*
X127405000Y-79799721D01*
X127405000Y-80220279D01*
X127487047Y-80632756D01*
X127647988Y-81021302D01*
X127881637Y-81370983D01*
X128179017Y-81668363D01*
X128528698Y-81902012D01*
X128917244Y-82062953D01*
X129329721Y-82145000D01*
X129750279Y-82145000D01*
X130162756Y-82062953D01*
X130551302Y-81902012D01*
X130900983Y-81668363D01*
X131198363Y-81370983D01*
X131432012Y-81021302D01*
X131592953Y-80632756D01*
X131675000Y-80220279D01*
X131675000Y-79799721D01*
X131592953Y-79387244D01*
X131432012Y-78998698D01*
X131198363Y-78649017D01*
X130900983Y-78351637D01*
X130551302Y-78117988D01*
X130162756Y-77957047D01*
X129750279Y-77875000D01*
X129329721Y-77875000D01*
X128917244Y-77957047D01*
X128528698Y-78117988D01*
X128179017Y-78351637D01*
X127881637Y-78649017D01*
X127647988Y-78998698D01*
X127487047Y-79387244D01*
X127405000Y-79799721D01*
X126595000Y-79799721D01*
X126512953Y-79387244D01*
X126352012Y-78998698D01*
X126118363Y-78649017D01*
X125820983Y-78351637D01*
X125471302Y-78117988D01*
X125082756Y-77957047D01*
X124670279Y-77875000D01*
X124249721Y-77875000D01*
X123837244Y-77957047D01*
X123448698Y-78117988D01*
X123099017Y-78351637D01*
X122801637Y-78649017D01*
X122567988Y-78998698D01*
X122407047Y-79387244D01*
X122325000Y-79799721D01*
X121439529Y-79799721D01*
X121515000Y-79724250D01*
X121518072Y-78510000D01*
X121505812Y-78385518D01*
X121469502Y-78265820D01*
X121410537Y-78155506D01*
X121331185Y-78058815D01*
X121234494Y-77979463D01*
X121124180Y-77920498D01*
X121004482Y-77884188D01*
X120880000Y-77871928D01*
X119665750Y-77875000D01*
X119507000Y-78033750D01*
X119253000Y-78033750D01*
X119094250Y-77875000D01*
X117880000Y-77871928D01*
X117755518Y-77884188D01*
X117635820Y-77920498D01*
X117525506Y-77979463D01*
X117428815Y-78058815D01*
X117349463Y-78155506D01*
X117290498Y-78265820D01*
X117254188Y-78385518D01*
X117241928Y-78510000D01*
X114549346Y-78510000D01*
X114390983Y-78351637D01*
X114041302Y-78117988D01*
X113652756Y-77957047D01*
X113240279Y-77875000D01*
X112819721Y-77875000D01*
X112407244Y-77957047D01*
X112018698Y-78117988D01*
X111669017Y-78351637D01*
X111371637Y-78649017D01*
X111137988Y-78998698D01*
X110977047Y-79387244D01*
X110895000Y-79799721D01*
X110085000Y-79799721D01*
X110002953Y-79387244D01*
X109842012Y-78998698D01*
X109608363Y-78649017D01*
X109310983Y-78351637D01*
X108961302Y-78117988D01*
X108572756Y-77957047D01*
X108160279Y-77875000D01*
X107739721Y-77875000D01*
X107327244Y-77957047D01*
X106938698Y-78117988D01*
X106589017Y-78351637D01*
X106291637Y-78649017D01*
X106057988Y-78998698D01*
X105897047Y-79387244D01*
X105815000Y-79799721D01*
X104929529Y-79799721D01*
X105005000Y-79724250D01*
X105008072Y-78510000D01*
X104995812Y-78385518D01*
X104959502Y-78265820D01*
X104900537Y-78155506D01*
X104821185Y-78058815D01*
X104724494Y-77979463D01*
X104614180Y-77920498D01*
X104494482Y-77884188D01*
X104370000Y-77871928D01*
X103155750Y-77875000D01*
X102997000Y-78033750D01*
X102743000Y-78033750D01*
X102584250Y-77875000D01*
X101370000Y-77871928D01*
X101245518Y-77884188D01*
X101125820Y-77920498D01*
X101015506Y-77979463D01*
X100918815Y-78058815D01*
X100839463Y-78155506D01*
X100780498Y-78265820D01*
X100744188Y-78385518D01*
X100731928Y-78510000D01*
X98039346Y-78510000D01*
X97880983Y-78351637D01*
X97531302Y-78117988D01*
X97142756Y-77957047D01*
X96730279Y-77875000D01*
X96309721Y-77875000D01*
X95897244Y-77957047D01*
X95508698Y-78117988D01*
X95159017Y-78351637D01*
X94861637Y-78649017D01*
X94627988Y-78998698D01*
X94467047Y-79387244D01*
X94385000Y-79799721D01*
X93575000Y-79799721D01*
X93492953Y-79387244D01*
X93332012Y-78998698D01*
X93098363Y-78649017D01*
X92800983Y-78351637D01*
X92451302Y-78117988D01*
X92062756Y-77957047D01*
X91650279Y-77875000D01*
X91229721Y-77875000D01*
X90817244Y-77957047D01*
X90428698Y-78117988D01*
X90079017Y-78351637D01*
X89781637Y-78649017D01*
X89547988Y-78998698D01*
X89387047Y-79387244D01*
X89305000Y-79799721D01*
X88419529Y-79799721D01*
X88495000Y-79724250D01*
X88498072Y-78510000D01*
X88485812Y-78385518D01*
X88449502Y-78265820D01*
X88390537Y-78155506D01*
X88311185Y-78058815D01*
X88214494Y-77979463D01*
X88104180Y-77920498D01*
X87984482Y-77884188D01*
X87860000Y-77871928D01*
X86645750Y-77875000D01*
X86487000Y-78033750D01*
X86233000Y-78033750D01*
X86074250Y-77875000D01*
X84860000Y-77871928D01*
X84735518Y-77884188D01*
X84615820Y-77920498D01*
X84505506Y-77979463D01*
X84408815Y-78058815D01*
X84329463Y-78155506D01*
X84270498Y-78265820D01*
X84234188Y-78385518D01*
X84221928Y-78510000D01*
X81529346Y-78510000D01*
X81370983Y-78351637D01*
X81021302Y-78117988D01*
X80632756Y-77957047D01*
X80220279Y-77875000D01*
X79799721Y-77875000D01*
X79387244Y-77957047D01*
X78998698Y-78117988D01*
X78649017Y-78351637D01*
X78351637Y-78649017D01*
X78117988Y-78998698D01*
X77957047Y-79387244D01*
X77875000Y-79799721D01*
X77065000Y-79799721D01*
X76982953Y-79387244D01*
X76822012Y-78998698D01*
X76588363Y-78649017D01*
X76290983Y-78351637D01*
X75941302Y-78117988D01*
X75552756Y-77957047D01*
X75140279Y-77875000D01*
X74719721Y-77875000D01*
X74307244Y-77957047D01*
X73918698Y-78117988D01*
X73569017Y-78351637D01*
X73271637Y-78649017D01*
X73037988Y-78998698D01*
X72877047Y-79387244D01*
X72795000Y-79799721D01*
X71909529Y-79799721D01*
X71985000Y-79724250D01*
X71988072Y-78510000D01*
X71975812Y-78385518D01*
X71939502Y-78265820D01*
X71880537Y-78155506D01*
X71801185Y-78058815D01*
X71704494Y-77979463D01*
X71594180Y-77920498D01*
X71474482Y-77884188D01*
X71350000Y-77871928D01*
X70135750Y-77875000D01*
X69977000Y-78033750D01*
X69723000Y-78033750D01*
X69564250Y-77875000D01*
X68350000Y-77871928D01*
X68225518Y-77884188D01*
X68105820Y-77920498D01*
X67995506Y-77979463D01*
X67898815Y-78058815D01*
X67819463Y-78155506D01*
X67760498Y-78265820D01*
X67724188Y-78385518D01*
X67711928Y-78510000D01*
X66700000Y-78510000D01*
X66700000Y-74320000D01*
X144120000Y-74320000D01*
X144120001Y-125070000D01*
%TA.AperFunction,Conductor*%
D16*
G36*
X144120001Y-125070000D02*
G01*
X66700000Y-125070000D01*
X66700000Y-123539040D01*
X78618091Y-123539040D01*
X78712930Y-123803881D01*
X78857615Y-124045131D01*
X79046586Y-124253519D01*
X79272580Y-124421037D01*
X79526913Y-124541246D01*
X79660961Y-124581904D01*
X79883000Y-124459915D01*
X79883000Y-123317000D01*
X80137000Y-123317000D01*
X80137000Y-124459915D01*
X80359039Y-124581904D01*
X80493087Y-124541246D01*
X80747420Y-124421037D01*
X80973414Y-124253519D01*
X81037632Y-124182702D01*
X95706903Y-124182702D01*
X95778486Y-124426671D01*
X96033996Y-124547571D01*
X96308184Y-124616300D01*
X96590512Y-124630217D01*
X96870130Y-124588787D01*
X97136292Y-124493603D01*
X97261514Y-124426671D01*
X97333097Y-124182702D01*
X96520000Y-123369605D01*
X95706903Y-124182702D01*
X81037632Y-124182702D01*
X81162385Y-124045131D01*
X81307070Y-123803881D01*
X81401909Y-123539040D01*
X81280624Y-123317000D01*
X80137000Y-123317000D01*
X79883000Y-123317000D01*
X78739376Y-123317000D01*
X78618091Y-123539040D01*
X66700000Y-123539040D01*
X66700000Y-123260512D01*
X95079783Y-123260512D01*
X95121213Y-123540130D01*
X95216397Y-123806292D01*
X95283329Y-123931514D01*
X95527298Y-124003097D01*
X96340395Y-123190000D01*
X96699605Y-123190000D01*
X97512702Y-124003097D01*
X97756671Y-123931514D01*
X97877571Y-123676004D01*
X97911902Y-123539040D01*
X111638091Y-123539040D01*
X111732930Y-123803881D01*
X111877615Y-124045131D01*
X112066586Y-124253519D01*
X112292580Y-124421037D01*
X112546913Y-124541246D01*
X112680961Y-124581904D01*
X112903000Y-124459915D01*
X112903000Y-123317000D01*
X113157000Y-123317000D01*
X113157000Y-124459915D01*
X113379039Y-124581904D01*
X113513087Y-124541246D01*
X113767420Y-124421037D01*
X113993414Y-124253519D01*
X114182385Y-124045131D01*
X114327070Y-123803881D01*
X114421909Y-123539040D01*
X126878091Y-123539040D01*
X126972930Y-123803881D01*
X127117615Y-124045131D01*
X127306586Y-124253519D01*
X127532580Y-124421037D01*
X127786913Y-124541246D01*
X127920961Y-124581904D01*
X128143000Y-124459915D01*
X128143000Y-123317000D01*
X128397000Y-123317000D01*
X128397000Y-124459915D01*
X128619039Y-124581904D01*
X128753087Y-124541246D01*
X129007420Y-124421037D01*
X129233414Y-124253519D01*
X129422385Y-124045131D01*
X129567070Y-123803881D01*
X129661909Y-123539040D01*
X129540624Y-123317000D01*
X128397000Y-123317000D01*
X128143000Y-123317000D01*
X126999376Y-123317000D01*
X126878091Y-123539040D01*
X114421909Y-123539040D01*
X114300624Y-123317000D01*
X113157000Y-123317000D01*
X112903000Y-123317000D01*
X111759376Y-123317000D01*
X111638091Y-123539040D01*
X97911902Y-123539040D01*
X97946300Y-123401816D01*
X97960217Y-123119488D01*
X97918949Y-122840960D01*
X111638091Y-122840960D01*
X111759376Y-123063000D01*
X112903000Y-123063000D01*
X112903000Y-121920085D01*
X113157000Y-121920085D01*
X113157000Y-123063000D01*
X114300624Y-123063000D01*
X114421909Y-122840960D01*
X126878091Y-122840960D01*
X126999376Y-123063000D01*
X128143000Y-123063000D01*
X128143000Y-121920085D01*
X128397000Y-121920085D01*
X128397000Y-123063000D01*
X129540624Y-123063000D01*
X129661909Y-122840960D01*
X129567070Y-122576119D01*
X129422385Y-122334869D01*
X129233414Y-122126481D01*
X129007420Y-121958963D01*
X128753087Y-121838754D01*
X128619039Y-121798096D01*
X128397000Y-121920085D01*
X128143000Y-121920085D01*
X127920961Y-121798096D01*
X127786913Y-121838754D01*
X127532580Y-121958963D01*
X127306586Y-122126481D01*
X127117615Y-122334869D01*
X126972930Y-122576119D01*
X126878091Y-122840960D01*
X114421909Y-122840960D01*
X114327070Y-122576119D01*
X114182385Y-122334869D01*
X113993414Y-122126481D01*
X113767420Y-121958963D01*
X113513087Y-121838754D01*
X113379039Y-121798096D01*
X113157000Y-121920085D01*
X112903000Y-121920085D01*
X112680961Y-121798096D01*
X112546913Y-121838754D01*
X112292580Y-121958963D01*
X112066586Y-122126481D01*
X111877615Y-122334869D01*
X111732930Y-122576119D01*
X111638091Y-122840960D01*
X97918949Y-122840960D01*
X97918787Y-122839870D01*
X97823603Y-122573708D01*
X97756671Y-122448486D01*
X97512702Y-122376903D01*
X96699605Y-123190000D01*
X96340395Y-123190000D01*
X95527298Y-122376903D01*
X95283329Y-122448486D01*
X95162429Y-122703996D01*
X95093700Y-122978184D01*
X95079783Y-123260512D01*
X66700000Y-123260512D01*
X66700000Y-122840960D01*
X78618091Y-122840960D01*
X78739376Y-123063000D01*
X79883000Y-123063000D01*
X79883000Y-121920085D01*
X80137000Y-121920085D01*
X80137000Y-123063000D01*
X81280624Y-123063000D01*
X81401909Y-122840960D01*
X81307070Y-122576119D01*
X81162385Y-122334869D01*
X81037633Y-122197298D01*
X95706903Y-122197298D01*
X96520000Y-123010395D01*
X97333097Y-122197298D01*
X97261514Y-121953329D01*
X97006004Y-121832429D01*
X96731816Y-121763700D01*
X96449488Y-121749783D01*
X96169870Y-121791213D01*
X95903708Y-121886397D01*
X95778486Y-121953329D01*
X95706903Y-122197298D01*
X81037633Y-122197298D01*
X80973414Y-122126481D01*
X80747420Y-121958963D01*
X80493087Y-121838754D01*
X80359039Y-121798096D01*
X80137000Y-121920085D01*
X79883000Y-121920085D01*
X79660961Y-121798096D01*
X79526913Y-121838754D01*
X79272580Y-121958963D01*
X79046586Y-122126481D01*
X78857615Y-122334869D01*
X78712930Y-122576119D01*
X78618091Y-122840960D01*
X66700000Y-122840960D01*
X66700000Y-118331653D01*
X137117952Y-118331653D01*
X137273962Y-118647214D01*
X137648745Y-118838020D01*
X138053551Y-118952044D01*
X138472824Y-118984902D01*
X138890451Y-118935334D01*
X139290383Y-118805243D01*
X139586038Y-118647214D01*
X139742048Y-118331653D01*
X138430000Y-117019605D01*
X137117952Y-118331653D01*
X66700000Y-118331653D01*
X66700000Y-116882824D01*
X136285098Y-116882824D01*
X136334666Y-117300451D01*
X136464757Y-117700383D01*
X136622786Y-117996038D01*
X136938347Y-118152048D01*
X138250395Y-116840000D01*
X138609605Y-116840000D01*
X139921653Y-118152048D01*
X140237214Y-117996038D01*
X140428020Y-117621255D01*
X140542044Y-117216449D01*
X140574902Y-116797176D01*
X140525334Y-116379549D01*
X140395243Y-115979617D01*
X140237214Y-115683962D01*
X139921653Y-115527952D01*
X138609605Y-116840000D01*
X138250395Y-116840000D01*
X136938347Y-115527952D01*
X136622786Y-115683962D01*
X136431980Y-116058745D01*
X136317956Y-116463551D01*
X136285098Y-116882824D01*
X66700000Y-116882824D01*
X66700000Y-115348347D01*
X137117952Y-115348347D01*
X138430000Y-116660395D01*
X139742048Y-115348347D01*
X139586038Y-115032786D01*
X139211255Y-114841980D01*
X138806449Y-114727956D01*
X138387176Y-114695098D01*
X137969549Y-114744666D01*
X137569617Y-114874757D01*
X137273962Y-115032786D01*
X137117952Y-115348347D01*
X66700000Y-115348347D01*
X66700000Y-110348665D01*
X78575000Y-110348665D01*
X78575000Y-110631335D01*
X78630147Y-110908574D01*
X78738320Y-111169727D01*
X78895363Y-111404759D01*
X79095241Y-111604637D01*
X79327759Y-111760000D01*
X79095241Y-111915363D01*
X78895363Y-112115241D01*
X78738320Y-112350273D01*
X78630147Y-112611426D01*
X78575000Y-112888665D01*
X78575000Y-113171335D01*
X78630147Y-113448574D01*
X78738320Y-113709727D01*
X78895363Y-113944759D01*
X79095241Y-114144637D01*
X79330273Y-114301680D01*
X79591426Y-114409853D01*
X79868665Y-114465000D01*
X80151335Y-114465000D01*
X80428574Y-114409853D01*
X80689727Y-114301680D01*
X80924759Y-114144637D01*
X81124637Y-113944759D01*
X81281680Y-113709727D01*
X81389853Y-113448574D01*
X81445000Y-113171335D01*
X81445000Y-112888665D01*
X81389853Y-112611426D01*
X81281680Y-112350273D01*
X81124637Y-112115241D01*
X80924759Y-111915363D01*
X80692241Y-111760000D01*
X80924759Y-111604637D01*
X81124637Y-111404759D01*
X81281680Y-111169727D01*
X81389853Y-110908574D01*
X81445000Y-110631335D01*
X81445000Y-110348665D01*
X95085000Y-110348665D01*
X95085000Y-110631335D01*
X95140147Y-110908574D01*
X95248320Y-111169727D01*
X95405363Y-111404759D01*
X95605241Y-111604637D01*
X95837759Y-111760000D01*
X95605241Y-111915363D01*
X95405363Y-112115241D01*
X95248320Y-112350273D01*
X95140147Y-112611426D01*
X95085000Y-112888665D01*
X95085000Y-113171335D01*
X95140147Y-113448574D01*
X95248320Y-113709727D01*
X95405363Y-113944759D01*
X95605241Y-114144637D01*
X95840273Y-114301680D01*
X96101426Y-114409853D01*
X96378665Y-114465000D01*
X96661335Y-114465000D01*
X96938574Y-114409853D01*
X97199727Y-114301680D01*
X97434759Y-114144637D01*
X97634637Y-113944759D01*
X97791680Y-113709727D01*
X97899853Y-113448574D01*
X97955000Y-113171335D01*
X97955000Y-112888665D01*
X97899853Y-112611426D01*
X97791680Y-112350273D01*
X97634637Y-112115241D01*
X97434759Y-111915363D01*
X97202241Y-111760000D01*
X97434759Y-111604637D01*
X97634637Y-111404759D01*
X97791680Y-111169727D01*
X97899853Y-110908574D01*
X97955000Y-110631335D01*
X97955000Y-110348665D01*
X111595000Y-110348665D01*
X111595000Y-110631335D01*
X111650147Y-110908574D01*
X111758320Y-111169727D01*
X111915363Y-111404759D01*
X112115241Y-111604637D01*
X112347759Y-111760000D01*
X112115241Y-111915363D01*
X111915363Y-112115241D01*
X111758320Y-112350273D01*
X111650147Y-112611426D01*
X111595000Y-112888665D01*
X111595000Y-113171335D01*
X111650147Y-113448574D01*
X111758320Y-113709727D01*
X111915363Y-113944759D01*
X112115241Y-114144637D01*
X112350273Y-114301680D01*
X112611426Y-114409853D01*
X112888665Y-114465000D01*
X113171335Y-114465000D01*
X113448574Y-114409853D01*
X113709727Y-114301680D01*
X113944759Y-114144637D01*
X114144637Y-113944759D01*
X114301680Y-113709727D01*
X114409853Y-113448574D01*
X114465000Y-113171335D01*
X114465000Y-112888665D01*
X114409853Y-112611426D01*
X114301680Y-112350273D01*
X114144637Y-112115241D01*
X113944759Y-111915363D01*
X113712241Y-111760000D01*
X113944759Y-111604637D01*
X114144637Y-111404759D01*
X114301680Y-111169727D01*
X114409853Y-110908574D01*
X114465000Y-110631335D01*
X114465000Y-110348665D01*
X126835000Y-110348665D01*
X126835000Y-110631335D01*
X126890147Y-110908574D01*
X126998320Y-111169727D01*
X127155363Y-111404759D01*
X127355241Y-111604637D01*
X127587759Y-111760000D01*
X127355241Y-111915363D01*
X127155363Y-112115241D01*
X126998320Y-112350273D01*
X126890147Y-112611426D01*
X126835000Y-112888665D01*
X126835000Y-113171335D01*
X126890147Y-113448574D01*
X126998320Y-113709727D01*
X127155363Y-113944759D01*
X127355241Y-114144637D01*
X127590273Y-114301680D01*
X127851426Y-114409853D01*
X128128665Y-114465000D01*
X128411335Y-114465000D01*
X128688574Y-114409853D01*
X128949727Y-114301680D01*
X129184759Y-114144637D01*
X129384637Y-113944759D01*
X129541680Y-113709727D01*
X129649853Y-113448574D01*
X129705000Y-113171335D01*
X129705000Y-112888665D01*
X129649853Y-112611426D01*
X129541680Y-112350273D01*
X129384637Y-112115241D01*
X129184759Y-111915363D01*
X128952241Y-111760000D01*
X129184759Y-111604637D01*
X129384637Y-111404759D01*
X129541680Y-111169727D01*
X129649853Y-110908574D01*
X129705000Y-110631335D01*
X129705000Y-110348665D01*
X129687364Y-110260000D01*
X136291928Y-110260000D01*
X136291928Y-113260000D01*
X136304188Y-113384482D01*
X136340498Y-113504180D01*
X136399463Y-113614494D01*
X136478815Y-113711185D01*
X136575506Y-113790537D01*
X136685820Y-113849502D01*
X136805518Y-113885812D01*
X136930000Y-113898072D01*
X139930000Y-113898072D01*
X140054482Y-113885812D01*
X140174180Y-113849502D01*
X140284494Y-113790537D01*
X140381185Y-113711185D01*
X140460537Y-113614494D01*
X140519502Y-113504180D01*
X140555812Y-113384482D01*
X140568072Y-113260000D01*
X140568072Y-110260000D01*
X140555812Y-110135518D01*
X140519502Y-110015820D01*
X140460537Y-109905506D01*
X140381185Y-109808815D01*
X140284494Y-109729463D01*
X140174180Y-109670498D01*
X140054482Y-109634188D01*
X139930000Y-109621928D01*
X136930000Y-109621928D01*
X136805518Y-109634188D01*
X136685820Y-109670498D01*
X136575506Y-109729463D01*
X136478815Y-109808815D01*
X136399463Y-109905506D01*
X136340498Y-110015820D01*
X136304188Y-110135518D01*
X136291928Y-110260000D01*
X129687364Y-110260000D01*
X129649853Y-110071426D01*
X129541680Y-109810273D01*
X129384637Y-109575241D01*
X129184759Y-109375363D01*
X128949727Y-109218320D01*
X128688574Y-109110147D01*
X128411335Y-109055000D01*
X128128665Y-109055000D01*
X127851426Y-109110147D01*
X127590273Y-109218320D01*
X127355241Y-109375363D01*
X127155363Y-109575241D01*
X126998320Y-109810273D01*
X126890147Y-110071426D01*
X126835000Y-110348665D01*
X114465000Y-110348665D01*
X114409853Y-110071426D01*
X114301680Y-109810273D01*
X114144637Y-109575241D01*
X113944759Y-109375363D01*
X113709727Y-109218320D01*
X113448574Y-109110147D01*
X113171335Y-109055000D01*
X112888665Y-109055000D01*
X112611426Y-109110147D01*
X112350273Y-109218320D01*
X112115241Y-109375363D01*
X111915363Y-109575241D01*
X111758320Y-109810273D01*
X111650147Y-110071426D01*
X111595000Y-110348665D01*
X97955000Y-110348665D01*
X97899853Y-110071426D01*
X97791680Y-109810273D01*
X97634637Y-109575241D01*
X97434759Y-109375363D01*
X97199727Y-109218320D01*
X96938574Y-109110147D01*
X96661335Y-109055000D01*
X96378665Y-109055000D01*
X96101426Y-109110147D01*
X95840273Y-109218320D01*
X95605241Y-109375363D01*
X95405363Y-109575241D01*
X95248320Y-109810273D01*
X95140147Y-110071426D01*
X95085000Y-110348665D01*
X81445000Y-110348665D01*
X81389853Y-110071426D01*
X81281680Y-109810273D01*
X81124637Y-109575241D01*
X80924759Y-109375363D01*
X80689727Y-109218320D01*
X80428574Y-109110147D01*
X80151335Y-109055000D01*
X79868665Y-109055000D01*
X79591426Y-109110147D01*
X79330273Y-109218320D01*
X79095241Y-109375363D01*
X78895363Y-109575241D01*
X78738320Y-109810273D01*
X78630147Y-110071426D01*
X78575000Y-110348665D01*
X66700000Y-110348665D01*
X66700000Y-106901653D01*
X137117952Y-106901653D01*
X137273962Y-107217214D01*
X137648745Y-107408020D01*
X138053551Y-107522044D01*
X138472824Y-107554902D01*
X138890451Y-107505334D01*
X139290383Y-107375243D01*
X139586038Y-107217214D01*
X139742048Y-106901653D01*
X138430000Y-105589605D01*
X137117952Y-106901653D01*
X66700000Y-106901653D01*
X66700000Y-105452824D01*
X136285098Y-105452824D01*
X136334666Y-105870451D01*
X136464757Y-106270383D01*
X136622786Y-106566038D01*
X136938347Y-106722048D01*
X138250395Y-105410000D01*
X138609605Y-105410000D01*
X139921653Y-106722048D01*
X140237214Y-106566038D01*
X140428020Y-106191255D01*
X140542044Y-105786449D01*
X140574902Y-105367176D01*
X140525334Y-104949549D01*
X140395243Y-104549617D01*
X140237214Y-104253962D01*
X139921653Y-104097952D01*
X138609605Y-105410000D01*
X138250395Y-105410000D01*
X136938347Y-104097952D01*
X136622786Y-104253962D01*
X136431980Y-104628745D01*
X136317956Y-105033551D01*
X136285098Y-105452824D01*
X66700000Y-105452824D01*
X66700000Y-103918347D01*
X137117952Y-103918347D01*
X138430000Y-105230395D01*
X139742048Y-103918347D01*
X139586038Y-103602786D01*
X139211255Y-103411980D01*
X138806449Y-103297956D01*
X138387176Y-103265098D01*
X137969549Y-103314666D01*
X137569617Y-103444757D01*
X137273962Y-103602786D01*
X137117952Y-103918347D01*
X66700000Y-103918347D01*
X66700000Y-97648665D01*
X78575000Y-97648665D01*
X78575000Y-97931335D01*
X78630147Y-98208574D01*
X78738320Y-98469727D01*
X78895363Y-98704759D01*
X79095241Y-98904637D01*
X79327759Y-99060000D01*
X79095241Y-99215363D01*
X78895363Y-99415241D01*
X78738320Y-99650273D01*
X78630147Y-99911426D01*
X78575000Y-100188665D01*
X78575000Y-100471335D01*
X78630147Y-100748574D01*
X78738320Y-101009727D01*
X78895363Y-101244759D01*
X79095241Y-101444637D01*
X79330273Y-101601680D01*
X79591426Y-101709853D01*
X79868665Y-101765000D01*
X80151335Y-101765000D01*
X80428574Y-101709853D01*
X80689727Y-101601680D01*
X80924759Y-101444637D01*
X81124637Y-101244759D01*
X81281680Y-101009727D01*
X81389853Y-100748574D01*
X81445000Y-100471335D01*
X81445000Y-100188665D01*
X81389853Y-99911426D01*
X81281680Y-99650273D01*
X81124637Y-99415241D01*
X80924759Y-99215363D01*
X80692241Y-99060000D01*
X80924759Y-98904637D01*
X81124637Y-98704759D01*
X81281680Y-98469727D01*
X81389853Y-98208574D01*
X81445000Y-97931335D01*
X81445000Y-97648665D01*
X95085000Y-97648665D01*
X95085000Y-97931335D01*
X95140147Y-98208574D01*
X95248320Y-98469727D01*
X95405363Y-98704759D01*
X95605241Y-98904637D01*
X95837759Y-99060000D01*
X95605241Y-99215363D01*
X95405363Y-99415241D01*
X95248320Y-99650273D01*
X95140147Y-99911426D01*
X95085000Y-100188665D01*
X95085000Y-100471335D01*
X95140147Y-100748574D01*
X95248320Y-101009727D01*
X95405363Y-101244759D01*
X95605241Y-101444637D01*
X95840273Y-101601680D01*
X96101426Y-101709853D01*
X96378665Y-101765000D01*
X96661335Y-101765000D01*
X96938574Y-101709853D01*
X97199727Y-101601680D01*
X97434759Y-101444637D01*
X97634637Y-101244759D01*
X97791680Y-101009727D01*
X97899853Y-100748574D01*
X97955000Y-100471335D01*
X97955000Y-100188665D01*
X97899853Y-99911426D01*
X97791680Y-99650273D01*
X97634637Y-99415241D01*
X97434759Y-99215363D01*
X97202241Y-99060000D01*
X97434759Y-98904637D01*
X97634637Y-98704759D01*
X97791680Y-98469727D01*
X97899853Y-98208574D01*
X97955000Y-97931335D01*
X97955000Y-97648665D01*
X111595000Y-97648665D01*
X111595000Y-97931335D01*
X111650147Y-98208574D01*
X111758320Y-98469727D01*
X111915363Y-98704759D01*
X112115241Y-98904637D01*
X112347759Y-99060000D01*
X112115241Y-99215363D01*
X111915363Y-99415241D01*
X111758320Y-99650273D01*
X111650147Y-99911426D01*
X111595000Y-100188665D01*
X111595000Y-100471335D01*
X111650147Y-100748574D01*
X111758320Y-101009727D01*
X111915363Y-101244759D01*
X112115241Y-101444637D01*
X112350273Y-101601680D01*
X112611426Y-101709853D01*
X112888665Y-101765000D01*
X113171335Y-101765000D01*
X113448574Y-101709853D01*
X113709727Y-101601680D01*
X113944759Y-101444637D01*
X114144637Y-101244759D01*
X114301680Y-101009727D01*
X114409853Y-100748574D01*
X114465000Y-100471335D01*
X114465000Y-100188665D01*
X114409853Y-99911426D01*
X114301680Y-99650273D01*
X114144637Y-99415241D01*
X113944759Y-99215363D01*
X113712241Y-99060000D01*
X113944759Y-98904637D01*
X114144637Y-98704759D01*
X114301680Y-98469727D01*
X114409853Y-98208574D01*
X114465000Y-97931335D01*
X114465000Y-97648665D01*
X126835000Y-97648665D01*
X126835000Y-97931335D01*
X126890147Y-98208574D01*
X126998320Y-98469727D01*
X127155363Y-98704759D01*
X127355241Y-98904637D01*
X127587759Y-99060000D01*
X127355241Y-99215363D01*
X127155363Y-99415241D01*
X126998320Y-99650273D01*
X126890147Y-99911426D01*
X126835000Y-100188665D01*
X126835000Y-100471335D01*
X126890147Y-100748574D01*
X126998320Y-101009727D01*
X127155363Y-101244759D01*
X127355241Y-101444637D01*
X127590273Y-101601680D01*
X127851426Y-101709853D01*
X128128665Y-101765000D01*
X128411335Y-101765000D01*
X128688574Y-101709853D01*
X128949727Y-101601680D01*
X129184759Y-101444637D01*
X129384637Y-101244759D01*
X129541680Y-101009727D01*
X129649853Y-100748574D01*
X129705000Y-100471335D01*
X129705000Y-100188665D01*
X129649853Y-99911426D01*
X129541680Y-99650273D01*
X129384637Y-99415241D01*
X129184759Y-99215363D01*
X128952241Y-99060000D01*
X129184759Y-98904637D01*
X129259396Y-98830000D01*
X136291928Y-98830000D01*
X136291928Y-101830000D01*
X136304188Y-101954482D01*
X136340498Y-102074180D01*
X136399463Y-102184494D01*
X136478815Y-102281185D01*
X136575506Y-102360537D01*
X136685820Y-102419502D01*
X136805518Y-102455812D01*
X136930000Y-102468072D01*
X139930000Y-102468072D01*
X140054482Y-102455812D01*
X140174180Y-102419502D01*
X140284494Y-102360537D01*
X140381185Y-102281185D01*
X140460537Y-102184494D01*
X140519502Y-102074180D01*
X140555812Y-101954482D01*
X140568072Y-101830000D01*
X140568072Y-98830000D01*
X140555812Y-98705518D01*
X140519502Y-98585820D01*
X140460537Y-98475506D01*
X140381185Y-98378815D01*
X140284494Y-98299463D01*
X140174180Y-98240498D01*
X140054482Y-98204188D01*
X139930000Y-98191928D01*
X136930000Y-98191928D01*
X136805518Y-98204188D01*
X136685820Y-98240498D01*
X136575506Y-98299463D01*
X136478815Y-98378815D01*
X136399463Y-98475506D01*
X136340498Y-98585820D01*
X136304188Y-98705518D01*
X136291928Y-98830000D01*
X129259396Y-98830000D01*
X129384637Y-98704759D01*
X129541680Y-98469727D01*
X129649853Y-98208574D01*
X129705000Y-97931335D01*
X129705000Y-97648665D01*
X129649853Y-97371426D01*
X129541680Y-97110273D01*
X129384637Y-96875241D01*
X129184759Y-96675363D01*
X128949727Y-96518320D01*
X128688574Y-96410147D01*
X128411335Y-96355000D01*
X128128665Y-96355000D01*
X127851426Y-96410147D01*
X127590273Y-96518320D01*
X127355241Y-96675363D01*
X127155363Y-96875241D01*
X126998320Y-97110273D01*
X126890147Y-97371426D01*
X126835000Y-97648665D01*
X114465000Y-97648665D01*
X114409853Y-97371426D01*
X114301680Y-97110273D01*
X114144637Y-96875241D01*
X113944759Y-96675363D01*
X113709727Y-96518320D01*
X113448574Y-96410147D01*
X113171335Y-96355000D01*
X112888665Y-96355000D01*
X112611426Y-96410147D01*
X112350273Y-96518320D01*
X112115241Y-96675363D01*
X111915363Y-96875241D01*
X111758320Y-97110273D01*
X111650147Y-97371426D01*
X111595000Y-97648665D01*
X97955000Y-97648665D01*
X97899853Y-97371426D01*
X97791680Y-97110273D01*
X97634637Y-96875241D01*
X97434759Y-96675363D01*
X97199727Y-96518320D01*
X96938574Y-96410147D01*
X96661335Y-96355000D01*
X96378665Y-96355000D01*
X96101426Y-96410147D01*
X95840273Y-96518320D01*
X95605241Y-96675363D01*
X95405363Y-96875241D01*
X95248320Y-97110273D01*
X95140147Y-97371426D01*
X95085000Y-97648665D01*
X81445000Y-97648665D01*
X81389853Y-97371426D01*
X81281680Y-97110273D01*
X81124637Y-96875241D01*
X80924759Y-96675363D01*
X80689727Y-96518320D01*
X80428574Y-96410147D01*
X80151335Y-96355000D01*
X79868665Y-96355000D01*
X79591426Y-96410147D01*
X79330273Y-96518320D01*
X79095241Y-96675363D01*
X78895363Y-96875241D01*
X78738320Y-97110273D01*
X78630147Y-97371426D01*
X78575000Y-97648665D01*
X66700000Y-97648665D01*
X66700000Y-95471653D01*
X137117952Y-95471653D01*
X137273962Y-95787214D01*
X137648745Y-95978020D01*
X138053551Y-96092044D01*
X138472824Y-96124902D01*
X138890451Y-96075334D01*
X139290383Y-95945243D01*
X139586038Y-95787214D01*
X139742048Y-95471653D01*
X138430000Y-94159605D01*
X137117952Y-95471653D01*
X66700000Y-95471653D01*
X66700000Y-94022824D01*
X136285098Y-94022824D01*
X136334666Y-94440451D01*
X136464757Y-94840383D01*
X136622786Y-95136038D01*
X136938347Y-95292048D01*
X138250395Y-93980000D01*
X138609605Y-93980000D01*
X139921653Y-95292048D01*
X140237214Y-95136038D01*
X140428020Y-94761255D01*
X140542044Y-94356449D01*
X140574902Y-93937176D01*
X140525334Y-93519549D01*
X140395243Y-93119617D01*
X140237214Y-92823962D01*
X139921653Y-92667952D01*
X138609605Y-93980000D01*
X138250395Y-93980000D01*
X136938347Y-92667952D01*
X136622786Y-92823962D01*
X136431980Y-93198745D01*
X136317956Y-93603551D01*
X136285098Y-94022824D01*
X66700000Y-94022824D01*
X66700000Y-92488347D01*
X137117952Y-92488347D01*
X138430000Y-93800395D01*
X139742048Y-92488347D01*
X139586038Y-92172786D01*
X139211255Y-91981980D01*
X138806449Y-91867956D01*
X138387176Y-91835098D01*
X137969549Y-91884666D01*
X137569617Y-92014757D01*
X137273962Y-92172786D01*
X137117952Y-92488347D01*
X66700000Y-92488347D01*
X66700000Y-87488665D01*
X78575000Y-87488665D01*
X78575000Y-87771335D01*
X78630147Y-88048574D01*
X78738320Y-88309727D01*
X78895363Y-88544759D01*
X79095241Y-88744637D01*
X79330273Y-88901680D01*
X79591426Y-89009853D01*
X79868665Y-89065000D01*
X80151335Y-89065000D01*
X80428574Y-89009853D01*
X80689727Y-88901680D01*
X80924759Y-88744637D01*
X81124637Y-88544759D01*
X81281680Y-88309727D01*
X81389853Y-88048574D01*
X81445000Y-87771335D01*
X81445000Y-87488665D01*
X95085000Y-87488665D01*
X95085000Y-87771335D01*
X95140147Y-88048574D01*
X95248320Y-88309727D01*
X95405363Y-88544759D01*
X95605241Y-88744637D01*
X95840273Y-88901680D01*
X96101426Y-89009853D01*
X96378665Y-89065000D01*
X96661335Y-89065000D01*
X96938574Y-89009853D01*
X97199727Y-88901680D01*
X97434759Y-88744637D01*
X97634637Y-88544759D01*
X97791680Y-88309727D01*
X97899853Y-88048574D01*
X97955000Y-87771335D01*
X97955000Y-87488665D01*
X111595000Y-87488665D01*
X111595000Y-87771335D01*
X111650147Y-88048574D01*
X111758320Y-88309727D01*
X111915363Y-88544759D01*
X112115241Y-88744637D01*
X112350273Y-88901680D01*
X112611426Y-89009853D01*
X112888665Y-89065000D01*
X113171335Y-89065000D01*
X113448574Y-89009853D01*
X113709727Y-88901680D01*
X113944759Y-88744637D01*
X114144637Y-88544759D01*
X114301680Y-88309727D01*
X114409853Y-88048574D01*
X114465000Y-87771335D01*
X114465000Y-87488665D01*
X126835000Y-87488665D01*
X126835000Y-87771335D01*
X126890147Y-88048574D01*
X126998320Y-88309727D01*
X127155363Y-88544759D01*
X127355241Y-88744637D01*
X127590273Y-88901680D01*
X127851426Y-89009853D01*
X128128665Y-89065000D01*
X128411335Y-89065000D01*
X128688574Y-89009853D01*
X128949727Y-88901680D01*
X129184759Y-88744637D01*
X129384637Y-88544759D01*
X129541680Y-88309727D01*
X129649853Y-88048574D01*
X129705000Y-87771335D01*
X129705000Y-87488665D01*
X129687364Y-87400000D01*
X136291928Y-87400000D01*
X136291928Y-90400000D01*
X136304188Y-90524482D01*
X136340498Y-90644180D01*
X136399463Y-90754494D01*
X136478815Y-90851185D01*
X136575506Y-90930537D01*
X136685820Y-90989502D01*
X136805518Y-91025812D01*
X136930000Y-91038072D01*
X139930000Y-91038072D01*
X140054482Y-91025812D01*
X140174180Y-90989502D01*
X140284494Y-90930537D01*
X140381185Y-90851185D01*
X140460537Y-90754494D01*
X140519502Y-90644180D01*
X140555812Y-90524482D01*
X140568072Y-90400000D01*
X140568072Y-87400000D01*
X140555812Y-87275518D01*
X140519502Y-87155820D01*
X140460537Y-87045506D01*
X140381185Y-86948815D01*
X140284494Y-86869463D01*
X140174180Y-86810498D01*
X140054482Y-86774188D01*
X139930000Y-86761928D01*
X136930000Y-86761928D01*
X136805518Y-86774188D01*
X136685820Y-86810498D01*
X136575506Y-86869463D01*
X136478815Y-86948815D01*
X136399463Y-87045506D01*
X136340498Y-87155820D01*
X136304188Y-87275518D01*
X136291928Y-87400000D01*
X129687364Y-87400000D01*
X129649853Y-87211426D01*
X129541680Y-86950273D01*
X129384637Y-86715241D01*
X129184759Y-86515363D01*
X128949727Y-86358320D01*
X128688574Y-86250147D01*
X128411335Y-86195000D01*
X128128665Y-86195000D01*
X127851426Y-86250147D01*
X127590273Y-86358320D01*
X127355241Y-86515363D01*
X127155363Y-86715241D01*
X126998320Y-86950273D01*
X126890147Y-87211426D01*
X126835000Y-87488665D01*
X114465000Y-87488665D01*
X114409853Y-87211426D01*
X114301680Y-86950273D01*
X114144637Y-86715241D01*
X113944759Y-86515363D01*
X113709727Y-86358320D01*
X113448574Y-86250147D01*
X113171335Y-86195000D01*
X112888665Y-86195000D01*
X112611426Y-86250147D01*
X112350273Y-86358320D01*
X112115241Y-86515363D01*
X111915363Y-86715241D01*
X111758320Y-86950273D01*
X111650147Y-87211426D01*
X111595000Y-87488665D01*
X97955000Y-87488665D01*
X97899853Y-87211426D01*
X97791680Y-86950273D01*
X97634637Y-86715241D01*
X97434759Y-86515363D01*
X97199727Y-86358320D01*
X96938574Y-86250147D01*
X96661335Y-86195000D01*
X96378665Y-86195000D01*
X96101426Y-86250147D01*
X95840273Y-86358320D01*
X95605241Y-86515363D01*
X95405363Y-86715241D01*
X95248320Y-86950273D01*
X95140147Y-87211426D01*
X95085000Y-87488665D01*
X81445000Y-87488665D01*
X81389853Y-87211426D01*
X81281680Y-86950273D01*
X81124637Y-86715241D01*
X80924759Y-86515363D01*
X80689727Y-86358320D01*
X80428574Y-86250147D01*
X80151335Y-86195000D01*
X79868665Y-86195000D01*
X79591426Y-86250147D01*
X79330273Y-86358320D01*
X79095241Y-86515363D01*
X78895363Y-86715241D01*
X78738320Y-86950273D01*
X78630147Y-87211426D01*
X78575000Y-87488665D01*
X66700000Y-87488665D01*
X66700000Y-81510000D01*
X67711928Y-81510000D01*
X67724188Y-81634482D01*
X67760498Y-81754180D01*
X67819463Y-81864494D01*
X67898815Y-81961185D01*
X67995506Y-82040537D01*
X68105820Y-82099502D01*
X68225518Y-82135812D01*
X68350000Y-82148072D01*
X69564250Y-82145000D01*
X69723000Y-81986250D01*
X69723000Y-80137000D01*
X69977000Y-80137000D01*
X69977000Y-81986250D01*
X70135750Y-82145000D01*
X71350000Y-82148072D01*
X71474482Y-82135812D01*
X71594180Y-82099502D01*
X71704494Y-82040537D01*
X71801185Y-81961185D01*
X71880537Y-81864494D01*
X71939502Y-81754180D01*
X71975812Y-81634482D01*
X71988072Y-81510000D01*
X71985000Y-80295750D01*
X71826250Y-80137000D01*
X69977000Y-80137000D01*
X69723000Y-80137000D01*
X67873750Y-80137000D01*
X67715000Y-80295750D01*
X67711928Y-81510000D01*
X66700000Y-81510000D01*
X66700000Y-78510000D01*
X67711928Y-78510000D01*
X67715000Y-79724250D01*
X67873750Y-79883000D01*
X69723000Y-79883000D01*
X69723000Y-78033750D01*
X69977000Y-78033750D01*
X69977000Y-79883000D01*
X71826250Y-79883000D01*
X71909529Y-79799721D01*
X72795000Y-79799721D01*
X72795000Y-80220279D01*
X72877047Y-80632756D01*
X73037988Y-81021302D01*
X73271637Y-81370983D01*
X73569017Y-81668363D01*
X73918698Y-81902012D01*
X74307244Y-82062953D01*
X74719721Y-82145000D01*
X75140279Y-82145000D01*
X75552756Y-82062953D01*
X75941302Y-81902012D01*
X76290983Y-81668363D01*
X76588363Y-81370983D01*
X76822012Y-81021302D01*
X76982953Y-80632756D01*
X77065000Y-80220279D01*
X77065000Y-79799721D01*
X77875000Y-79799721D01*
X77875000Y-80220279D01*
X77957047Y-80632756D01*
X78117988Y-81021302D01*
X78351637Y-81370983D01*
X78649017Y-81668363D01*
X78998698Y-81902012D01*
X79387244Y-82062953D01*
X79799721Y-82145000D01*
X80220279Y-82145000D01*
X80632756Y-82062953D01*
X81021302Y-81902012D01*
X81370983Y-81668363D01*
X81529346Y-81510000D01*
X84221928Y-81510000D01*
X84234188Y-81634482D01*
X84270498Y-81754180D01*
X84329463Y-81864494D01*
X84408815Y-81961185D01*
X84505506Y-82040537D01*
X84615820Y-82099502D01*
X84735518Y-82135812D01*
X84860000Y-82148072D01*
X86074250Y-82145000D01*
X86233000Y-81986250D01*
X86233000Y-80137000D01*
X86487000Y-80137000D01*
X86487000Y-81986250D01*
X86645750Y-82145000D01*
X87860000Y-82148072D01*
X87984482Y-82135812D01*
X88104180Y-82099502D01*
X88214494Y-82040537D01*
X88311185Y-81961185D01*
X88390537Y-81864494D01*
X88449502Y-81754180D01*
X88485812Y-81634482D01*
X88498072Y-81510000D01*
X88495000Y-80295750D01*
X88336250Y-80137000D01*
X86487000Y-80137000D01*
X86233000Y-80137000D01*
X84383750Y-80137000D01*
X84225000Y-80295750D01*
X84221928Y-81510000D01*
X81529346Y-81510000D01*
X81668363Y-81370983D01*
X81902012Y-81021302D01*
X82062953Y-80632756D01*
X82145000Y-80220279D01*
X82145000Y-79799721D01*
X82062953Y-79387244D01*
X81902012Y-78998698D01*
X81668363Y-78649017D01*
X81529346Y-78510000D01*
X84221928Y-78510000D01*
X84225000Y-79724250D01*
X84383750Y-79883000D01*
X86233000Y-79883000D01*
X86233000Y-78033750D01*
X86487000Y-78033750D01*
X86487000Y-79883000D01*
X88336250Y-79883000D01*
X88419529Y-79799721D01*
X89305000Y-79799721D01*
X89305000Y-80220279D01*
X89387047Y-80632756D01*
X89547988Y-81021302D01*
X89781637Y-81370983D01*
X90079017Y-81668363D01*
X90428698Y-81902012D01*
X90817244Y-82062953D01*
X91229721Y-82145000D01*
X91650279Y-82145000D01*
X92062756Y-82062953D01*
X92451302Y-81902012D01*
X92800983Y-81668363D01*
X93098363Y-81370983D01*
X93332012Y-81021302D01*
X93492953Y-80632756D01*
X93575000Y-80220279D01*
X93575000Y-79799721D01*
X94385000Y-79799721D01*
X94385000Y-80220279D01*
X94467047Y-80632756D01*
X94627988Y-81021302D01*
X94861637Y-81370983D01*
X95159017Y-81668363D01*
X95508698Y-81902012D01*
X95897244Y-82062953D01*
X96309721Y-82145000D01*
X96730279Y-82145000D01*
X97142756Y-82062953D01*
X97531302Y-81902012D01*
X97880983Y-81668363D01*
X98039346Y-81510000D01*
X100731928Y-81510000D01*
X100744188Y-81634482D01*
X100780498Y-81754180D01*
X100839463Y-81864494D01*
X100918815Y-81961185D01*
X101015506Y-82040537D01*
X101125820Y-82099502D01*
X101245518Y-82135812D01*
X101370000Y-82148072D01*
X102584250Y-82145000D01*
X102743000Y-81986250D01*
X102743000Y-80137000D01*
X102997000Y-80137000D01*
X102997000Y-81986250D01*
X103155750Y-82145000D01*
X104370000Y-82148072D01*
X104494482Y-82135812D01*
X104614180Y-82099502D01*
X104724494Y-82040537D01*
X104821185Y-81961185D01*
X104900537Y-81864494D01*
X104959502Y-81754180D01*
X104995812Y-81634482D01*
X105008072Y-81510000D01*
X105005000Y-80295750D01*
X104846250Y-80137000D01*
X102997000Y-80137000D01*
X102743000Y-80137000D01*
X100893750Y-80137000D01*
X100735000Y-80295750D01*
X100731928Y-81510000D01*
X98039346Y-81510000D01*
X98178363Y-81370983D01*
X98412012Y-81021302D01*
X98572953Y-80632756D01*
X98655000Y-80220279D01*
X98655000Y-79799721D01*
X98572953Y-79387244D01*
X98412012Y-78998698D01*
X98178363Y-78649017D01*
X98039346Y-78510000D01*
X100731928Y-78510000D01*
X100735000Y-79724250D01*
X100893750Y-79883000D01*
X102743000Y-79883000D01*
X102743000Y-78033750D01*
X102997000Y-78033750D01*
X102997000Y-79883000D01*
X104846250Y-79883000D01*
X104929529Y-79799721D01*
X105815000Y-79799721D01*
X105815000Y-80220279D01*
X105897047Y-80632756D01*
X106057988Y-81021302D01*
X106291637Y-81370983D01*
X106589017Y-81668363D01*
X106938698Y-81902012D01*
X107327244Y-82062953D01*
X107739721Y-82145000D01*
X108160279Y-82145000D01*
X108572756Y-82062953D01*
X108961302Y-81902012D01*
X109310983Y-81668363D01*
X109608363Y-81370983D01*
X109842012Y-81021302D01*
X110002953Y-80632756D01*
X110085000Y-80220279D01*
X110085000Y-79799721D01*
X110895000Y-79799721D01*
X110895000Y-80220279D01*
X110977047Y-80632756D01*
X111137988Y-81021302D01*
X111371637Y-81370983D01*
X111669017Y-81668363D01*
X112018698Y-81902012D01*
X112407244Y-82062953D01*
X112819721Y-82145000D01*
X113240279Y-82145000D01*
X113652756Y-82062953D01*
X114041302Y-81902012D01*
X114390983Y-81668363D01*
X114549346Y-81510000D01*
X117241928Y-81510000D01*
X117254188Y-81634482D01*
X117290498Y-81754180D01*
X117349463Y-81864494D01*
X117428815Y-81961185D01*
X117525506Y-82040537D01*
X117635820Y-82099502D01*
X117755518Y-82135812D01*
X117880000Y-82148072D01*
X119094250Y-82145000D01*
X119253000Y-81986250D01*
X119253000Y-80137000D01*
X119507000Y-80137000D01*
X119507000Y-81986250D01*
X119665750Y-82145000D01*
X120880000Y-82148072D01*
X121004482Y-82135812D01*
X121124180Y-82099502D01*
X121234494Y-82040537D01*
X121331185Y-81961185D01*
X121410537Y-81864494D01*
X121469502Y-81754180D01*
X121505812Y-81634482D01*
X121518072Y-81510000D01*
X121515000Y-80295750D01*
X121356250Y-80137000D01*
X119507000Y-80137000D01*
X119253000Y-80137000D01*
X117403750Y-80137000D01*
X117245000Y-80295750D01*
X117241928Y-81510000D01*
X114549346Y-81510000D01*
X114688363Y-81370983D01*
X114922012Y-81021302D01*
X115082953Y-80632756D01*
X115165000Y-80220279D01*
X115165000Y-79799721D01*
X115082953Y-79387244D01*
X114922012Y-78998698D01*
X114688363Y-78649017D01*
X114549346Y-78510000D01*
X117241928Y-78510000D01*
X117245000Y-79724250D01*
X117403750Y-79883000D01*
X119253000Y-79883000D01*
X119253000Y-78033750D01*
X119507000Y-78033750D01*
X119507000Y-79883000D01*
X121356250Y-79883000D01*
X121439529Y-79799721D01*
X122325000Y-79799721D01*
X122325000Y-80220279D01*
X122407047Y-80632756D01*
X122567988Y-81021302D01*
X122801637Y-81370983D01*
X123099017Y-81668363D01*
X123448698Y-81902012D01*
X123837244Y-82062953D01*
X124249721Y-82145000D01*
X124670279Y-82145000D01*
X125082756Y-82062953D01*
X125471302Y-81902012D01*
X125820983Y-81668363D01*
X126118363Y-81370983D01*
X126352012Y-81021302D01*
X126512953Y-80632756D01*
X126595000Y-80220279D01*
X126595000Y-79799721D01*
X127405000Y-79799721D01*
X127405000Y-80220279D01*
X127487047Y-80632756D01*
X127647988Y-81021302D01*
X127881637Y-81370983D01*
X128179017Y-81668363D01*
X128528698Y-81902012D01*
X128917244Y-82062953D01*
X129329721Y-82145000D01*
X129750279Y-82145000D01*
X130162756Y-82062953D01*
X130551302Y-81902012D01*
X130900983Y-81668363D01*
X131198363Y-81370983D01*
X131432012Y-81021302D01*
X131592953Y-80632756D01*
X131675000Y-80220279D01*
X131675000Y-79799721D01*
X131592953Y-79387244D01*
X131432012Y-78998698D01*
X131198363Y-78649017D01*
X130900983Y-78351637D01*
X130551302Y-78117988D01*
X130162756Y-77957047D01*
X129750279Y-77875000D01*
X129329721Y-77875000D01*
X128917244Y-77957047D01*
X128528698Y-78117988D01*
X128179017Y-78351637D01*
X127881637Y-78649017D01*
X127647988Y-78998698D01*
X127487047Y-79387244D01*
X127405000Y-79799721D01*
X126595000Y-79799721D01*
X126512953Y-79387244D01*
X126352012Y-78998698D01*
X126118363Y-78649017D01*
X125820983Y-78351637D01*
X125471302Y-78117988D01*
X125082756Y-77957047D01*
X124670279Y-77875000D01*
X124249721Y-77875000D01*
X123837244Y-77957047D01*
X123448698Y-78117988D01*
X123099017Y-78351637D01*
X122801637Y-78649017D01*
X122567988Y-78998698D01*
X122407047Y-79387244D01*
X122325000Y-79799721D01*
X121439529Y-79799721D01*
X121515000Y-79724250D01*
X121518072Y-78510000D01*
X121505812Y-78385518D01*
X121469502Y-78265820D01*
X121410537Y-78155506D01*
X121331185Y-78058815D01*
X121234494Y-77979463D01*
X121124180Y-77920498D01*
X121004482Y-77884188D01*
X120880000Y-77871928D01*
X119665750Y-77875000D01*
X119507000Y-78033750D01*
X119253000Y-78033750D01*
X119094250Y-77875000D01*
X117880000Y-77871928D01*
X117755518Y-77884188D01*
X117635820Y-77920498D01*
X117525506Y-77979463D01*
X117428815Y-78058815D01*
X117349463Y-78155506D01*
X117290498Y-78265820D01*
X117254188Y-78385518D01*
X117241928Y-78510000D01*
X114549346Y-78510000D01*
X114390983Y-78351637D01*
X114041302Y-78117988D01*
X113652756Y-77957047D01*
X113240279Y-77875000D01*
X112819721Y-77875000D01*
X112407244Y-77957047D01*
X112018698Y-78117988D01*
X111669017Y-78351637D01*
X111371637Y-78649017D01*
X111137988Y-78998698D01*
X110977047Y-79387244D01*
X110895000Y-79799721D01*
X110085000Y-79799721D01*
X110002953Y-79387244D01*
X109842012Y-78998698D01*
X109608363Y-78649017D01*
X109310983Y-78351637D01*
X108961302Y-78117988D01*
X108572756Y-77957047D01*
X108160279Y-77875000D01*
X107739721Y-77875000D01*
X107327244Y-77957047D01*
X106938698Y-78117988D01*
X106589017Y-78351637D01*
X106291637Y-78649017D01*
X106057988Y-78998698D01*
X105897047Y-79387244D01*
X105815000Y-79799721D01*
X104929529Y-79799721D01*
X105005000Y-79724250D01*
X105008072Y-78510000D01*
X104995812Y-78385518D01*
X104959502Y-78265820D01*
X104900537Y-78155506D01*
X104821185Y-78058815D01*
X104724494Y-77979463D01*
X104614180Y-77920498D01*
X104494482Y-77884188D01*
X104370000Y-77871928D01*
X103155750Y-77875000D01*
X102997000Y-78033750D01*
X102743000Y-78033750D01*
X102584250Y-77875000D01*
X101370000Y-77871928D01*
X101245518Y-77884188D01*
X101125820Y-77920498D01*
X101015506Y-77979463D01*
X100918815Y-78058815D01*
X100839463Y-78155506D01*
X100780498Y-78265820D01*
X100744188Y-78385518D01*
X100731928Y-78510000D01*
X98039346Y-78510000D01*
X97880983Y-78351637D01*
X97531302Y-78117988D01*
X97142756Y-77957047D01*
X96730279Y-77875000D01*
X96309721Y-77875000D01*
X95897244Y-77957047D01*
X95508698Y-78117988D01*
X95159017Y-78351637D01*
X94861637Y-78649017D01*
X94627988Y-78998698D01*
X94467047Y-79387244D01*
X94385000Y-79799721D01*
X93575000Y-79799721D01*
X93492953Y-79387244D01*
X93332012Y-78998698D01*
X93098363Y-78649017D01*
X92800983Y-78351637D01*
X92451302Y-78117988D01*
X92062756Y-77957047D01*
X91650279Y-77875000D01*
X91229721Y-77875000D01*
X90817244Y-77957047D01*
X90428698Y-78117988D01*
X90079017Y-78351637D01*
X89781637Y-78649017D01*
X89547988Y-78998698D01*
X89387047Y-79387244D01*
X89305000Y-79799721D01*
X88419529Y-79799721D01*
X88495000Y-79724250D01*
X88498072Y-78510000D01*
X88485812Y-78385518D01*
X88449502Y-78265820D01*
X88390537Y-78155506D01*
X88311185Y-78058815D01*
X88214494Y-77979463D01*
X88104180Y-77920498D01*
X87984482Y-77884188D01*
X87860000Y-77871928D01*
X86645750Y-77875000D01*
X86487000Y-78033750D01*
X86233000Y-78033750D01*
X86074250Y-77875000D01*
X84860000Y-77871928D01*
X84735518Y-77884188D01*
X84615820Y-77920498D01*
X84505506Y-77979463D01*
X84408815Y-78058815D01*
X84329463Y-78155506D01*
X84270498Y-78265820D01*
X84234188Y-78385518D01*
X84221928Y-78510000D01*
X81529346Y-78510000D01*
X81370983Y-78351637D01*
X81021302Y-78117988D01*
X80632756Y-77957047D01*
X80220279Y-77875000D01*
X79799721Y-77875000D01*
X79387244Y-77957047D01*
X78998698Y-78117988D01*
X78649017Y-78351637D01*
X78351637Y-78649017D01*
X78117988Y-78998698D01*
X77957047Y-79387244D01*
X77875000Y-79799721D01*
X77065000Y-79799721D01*
X76982953Y-79387244D01*
X76822012Y-78998698D01*
X76588363Y-78649017D01*
X76290983Y-78351637D01*
X75941302Y-78117988D01*
X75552756Y-77957047D01*
X75140279Y-77875000D01*
X74719721Y-77875000D01*
X74307244Y-77957047D01*
X73918698Y-78117988D01*
X73569017Y-78351637D01*
X73271637Y-78649017D01*
X73037988Y-78998698D01*
X72877047Y-79387244D01*
X72795000Y-79799721D01*
X71909529Y-79799721D01*
X71985000Y-79724250D01*
X71988072Y-78510000D01*
X71975812Y-78385518D01*
X71939502Y-78265820D01*
X71880537Y-78155506D01*
X71801185Y-78058815D01*
X71704494Y-77979463D01*
X71594180Y-77920498D01*
X71474482Y-77884188D01*
X71350000Y-77871928D01*
X70135750Y-77875000D01*
X69977000Y-78033750D01*
X69723000Y-78033750D01*
X69564250Y-77875000D01*
X68350000Y-77871928D01*
X68225518Y-77884188D01*
X68105820Y-77920498D01*
X67995506Y-77979463D01*
X67898815Y-78058815D01*
X67819463Y-78155506D01*
X67760498Y-78265820D01*
X67724188Y-78385518D01*
X67711928Y-78510000D01*
X66700000Y-78510000D01*
X66700000Y-74320000D01*
X144120000Y-74320000D01*
X144120001Y-125070000D01*
G37*
%TD.AperFunction*%
%TD*%
M02*
