%TF.GenerationSoftware,KiCad,Pcbnew,(5.1.10)-1*%
%TF.CreationDate,2021-12-26T17:37:53-08:00*%
%TF.ProjectId,encoder_5v_to_3v,656e636f-6465-4725-9f35-765f746f5f33,rev?*%
%TF.SameCoordinates,Original*%
%TF.FileFunction,Soldermask,Top*%
%TF.FilePolarity,Negative*%
%FSLAX46Y46*%
G04 Gerber Fmt 4.6, Leading zero omitted, Abs format (unit mm)*
G04 Created by KiCad (PCBNEW (5.1.10)-1) date 2021-12-26 17:37:53*
%MOMM*%
%LPD*%
G01*
G04 APERTURE LIST*
%ADD10C,3.000000*%
%ADD11R,3.000000X3.000000*%
%ADD12O,1.600000X1.600000*%
%ADD13C,1.600000*%
G04 APERTURE END LIST*
D10*
%TO.C,J4*%
X80010000Y-80010000D03*
X74930000Y-80010000D03*
D11*
X69850000Y-80010000D03*
%TD*%
D10*
%TO.C,J3*%
X129540000Y-80010000D03*
X124460000Y-80010000D03*
D11*
X119380000Y-80010000D03*
%TD*%
D10*
%TO.C,J2*%
X113030000Y-80010000D03*
X107950000Y-80010000D03*
D11*
X102870000Y-80010000D03*
%TD*%
D10*
%TO.C,J1*%
X96520000Y-80010000D03*
X91440000Y-80010000D03*
D11*
X86360000Y-80010000D03*
%TD*%
D12*
%TO.C,R12*%
X80010000Y-123190000D03*
D13*
X80010000Y-113030000D03*
%TD*%
D12*
%TO.C,R11*%
X80010000Y-110490000D03*
D13*
X80010000Y-100330000D03*
%TD*%
D12*
%TO.C,R10*%
X80010000Y-97790000D03*
D13*
X80010000Y-87630000D03*
%TD*%
D12*
%TO.C,R1*%
X96520000Y-97790000D03*
D13*
X96520000Y-87630000D03*
%TD*%
D12*
%TO.C,R9*%
X128270000Y-123190000D03*
D13*
X128270000Y-113030000D03*
%TD*%
D12*
%TO.C,R8*%
X128270000Y-110490000D03*
D13*
X128270000Y-100330000D03*
%TD*%
D12*
%TO.C,R7*%
X128270000Y-97790000D03*
D13*
X128270000Y-87630000D03*
%TD*%
D12*
%TO.C,R6*%
X113030000Y-123190000D03*
D13*
X113030000Y-113030000D03*
%TD*%
D12*
%TO.C,R5*%
X113030000Y-110490000D03*
D13*
X113030000Y-100330000D03*
%TD*%
D12*
%TO.C,R4*%
X113030000Y-97790000D03*
D13*
X113030000Y-87630000D03*
%TD*%
D12*
%TO.C,R3*%
X96520000Y-113030000D03*
D13*
X96520000Y-123190000D03*
%TD*%
D12*
%TO.C,R2*%
X96520000Y-110490000D03*
D13*
X96520000Y-100330000D03*
%TD*%
D11*
%TO.C,J7*%
X138430000Y-88900000D03*
D10*
X138430000Y-93980000D03*
%TD*%
%TO.C,J5*%
X138430000Y-116840000D03*
D11*
X138430000Y-111760000D03*
%TD*%
%TO.C,J6*%
X138430000Y-100330000D03*
D10*
X138430000Y-105410000D03*
%TD*%
M02*
