%TF.GenerationSoftware,KiCad,Pcbnew,(5.1.10)-1*%
%TF.CreationDate,2021-12-26T17:37:53-08:00*%
%TF.ProjectId,encoder_5v_to_3v,656e636f-6465-4725-9f35-765f746f5f33,rev?*%
%TF.SameCoordinates,Original*%
%TF.FileFunction,Copper,L1,Top*%
%TF.FilePolarity,Positive*%
%FSLAX46Y46*%
G04 Gerber Fmt 4.6, Leading zero omitted, Abs format (unit mm)*
G04 Created by KiCad (PCBNEW (5.1.10)-1) date 2021-12-26 17:37:53*
%MOMM*%
%LPD*%
G01*
G04 APERTURE LIST*
%TA.AperFunction,ComponentPad*%
%ADD10C,3.000000*%
%TD*%
%TA.AperFunction,ComponentPad*%
%ADD11R,3.000000X3.000000*%
%TD*%
%TA.AperFunction,ComponentPad*%
%ADD12O,1.600000X1.600000*%
%TD*%
%TA.AperFunction,ComponentPad*%
%ADD13C,1.600000*%
%TD*%
%TA.AperFunction,ViaPad*%
%ADD14C,0.800000*%
%TD*%
%TA.AperFunction,Conductor*%
%ADD15C,0.250000*%
%TD*%
G04 APERTURE END LIST*
D10*
%TO.P,J4,3*%
%TO.N,Net-(J4-Pad3)*%
X80010000Y-80010000D03*
%TO.P,J4,2*%
%TO.N,Net-(J4-Pad2)*%
X74930000Y-80010000D03*
D11*
%TO.P,J4,1*%
%TO.N,GND*%
X69850000Y-80010000D03*
%TD*%
D10*
%TO.P,J3,3*%
%TO.N,Net-(J3-Pad3)*%
X129540000Y-80010000D03*
%TO.P,J3,2*%
%TO.N,Net-(J3-Pad2)*%
X124460000Y-80010000D03*
D11*
%TO.P,J3,1*%
%TO.N,GND*%
X119380000Y-80010000D03*
%TD*%
D10*
%TO.P,J2,3*%
%TO.N,Net-(J2-Pad3)*%
X113030000Y-80010000D03*
%TO.P,J2,2*%
%TO.N,Net-(J2-Pad2)*%
X107950000Y-80010000D03*
D11*
%TO.P,J2,1*%
%TO.N,GND*%
X102870000Y-80010000D03*
%TD*%
D10*
%TO.P,J1,3*%
%TO.N,Net-(J1-Pad3)*%
X96520000Y-80010000D03*
%TO.P,J1,2*%
%TO.N,Net-(J1-Pad2)*%
X91440000Y-80010000D03*
D11*
%TO.P,J1,1*%
%TO.N,GND*%
X86360000Y-80010000D03*
%TD*%
D12*
%TO.P,R12,2*%
%TO.N,GND*%
X80010000Y-123190000D03*
D13*
%TO.P,R12,1*%
%TO.N,Net-(R11-Pad2)*%
X80010000Y-113030000D03*
%TD*%
D12*
%TO.P,R11,2*%
%TO.N,Net-(R11-Pad2)*%
X80010000Y-110490000D03*
D13*
%TO.P,R11,1*%
%TO.N,Net-(J4-Pad2)*%
X80010000Y-100330000D03*
%TD*%
D12*
%TO.P,R10,2*%
%TO.N,Net-(J4-Pad2)*%
X80010000Y-97790000D03*
D13*
%TO.P,R10,1*%
%TO.N,Net-(J4-Pad3)*%
X80010000Y-87630000D03*
%TD*%
D12*
%TO.P,R1,2*%
%TO.N,Net-(J1-Pad2)*%
X96520000Y-97790000D03*
D13*
%TO.P,R1,1*%
%TO.N,Net-(J1-Pad3)*%
X96520000Y-87630000D03*
%TD*%
D12*
%TO.P,R9,2*%
%TO.N,GND*%
X128270000Y-123190000D03*
D13*
%TO.P,R9,1*%
%TO.N,Net-(R8-Pad2)*%
X128270000Y-113030000D03*
%TD*%
D12*
%TO.P,R8,2*%
%TO.N,Net-(R8-Pad2)*%
X128270000Y-110490000D03*
D13*
%TO.P,R8,1*%
%TO.N,Net-(J3-Pad2)*%
X128270000Y-100330000D03*
%TD*%
D12*
%TO.P,R7,2*%
%TO.N,Net-(J3-Pad2)*%
X128270000Y-97790000D03*
D13*
%TO.P,R7,1*%
%TO.N,Net-(J3-Pad3)*%
X128270000Y-87630000D03*
%TD*%
D12*
%TO.P,R6,2*%
%TO.N,GND*%
X113030000Y-123190000D03*
D13*
%TO.P,R6,1*%
%TO.N,Net-(R5-Pad2)*%
X113030000Y-113030000D03*
%TD*%
D12*
%TO.P,R5,2*%
%TO.N,Net-(R5-Pad2)*%
X113030000Y-110490000D03*
D13*
%TO.P,R5,1*%
%TO.N,Net-(J2-Pad2)*%
X113030000Y-100330000D03*
%TD*%
D12*
%TO.P,R4,2*%
%TO.N,Net-(J2-Pad2)*%
X113030000Y-97790000D03*
D13*
%TO.P,R4,1*%
%TO.N,Net-(J2-Pad3)*%
X113030000Y-87630000D03*
%TD*%
D12*
%TO.P,R3,2*%
%TO.N,Net-(R2-Pad2)*%
X96520000Y-113030000D03*
D13*
%TO.P,R3,1*%
%TO.N,GND*%
X96520000Y-123190000D03*
%TD*%
D12*
%TO.P,R2,2*%
%TO.N,Net-(R2-Pad2)*%
X96520000Y-110490000D03*
D13*
%TO.P,R2,1*%
%TO.N,Net-(J1-Pad2)*%
X96520000Y-100330000D03*
%TD*%
D11*
%TO.P,J7,1*%
%TO.N,Net-(J5-Pad1)*%
X138430000Y-88900000D03*
D10*
%TO.P,J7,2*%
%TO.N,GND*%
X138430000Y-93980000D03*
%TD*%
%TO.P,J5,2*%
%TO.N,GND*%
X138430000Y-116840000D03*
D11*
%TO.P,J5,1*%
%TO.N,Net-(J5-Pad1)*%
X138430000Y-111760000D03*
%TD*%
%TO.P,J6,1*%
%TO.N,Net-(J5-Pad1)*%
X138430000Y-100330000D03*
D10*
%TO.P,J6,2*%
%TO.N,GND*%
X138430000Y-105410000D03*
%TD*%
D14*
%TO.N,GND*%
X138430000Y-116840000D03*
X138430000Y-105410000D03*
X138430000Y-93980000D03*
X138430000Y-93980000D03*
X80010000Y-123190000D03*
X96520000Y-123190000D03*
X113030000Y-123190000D03*
X128270000Y-123190000D03*
%TD*%
D15*
%TO.N,Net-(J1-Pad2)*%
X96520000Y-97790000D02*
X96520000Y-100330000D01*
X91440000Y-80010000D02*
X91440000Y-97790000D01*
X91440000Y-97790000D02*
X96520000Y-97790000D01*
%TO.N,Net-(R2-Pad2)*%
X96520000Y-110490000D02*
X96520000Y-113030000D01*
%TO.N,Net-(J2-Pad2)*%
X113030000Y-97790000D02*
X113030000Y-100330000D01*
X107950000Y-80010000D02*
X107950000Y-97790000D01*
X107950000Y-97790000D02*
X113030000Y-97790000D01*
%TO.N,Net-(R5-Pad2)*%
X113030000Y-110490000D02*
X113030000Y-113030000D01*
%TO.N,Net-(J3-Pad2)*%
X128270000Y-97790000D02*
X128270000Y-100330000D01*
X124460000Y-80010000D02*
X124460000Y-97790000D01*
X124460000Y-97790000D02*
X128270000Y-97790000D01*
%TO.N,Net-(R8-Pad2)*%
X128270000Y-110490000D02*
X128270000Y-113030000D01*
%TO.N,GND*%
X119380000Y-80010000D02*
X119380000Y-123190000D01*
X102870000Y-80010000D02*
X102870000Y-123190000D01*
X102870000Y-123190000D02*
X113030000Y-123190000D01*
X86360000Y-80010000D02*
X86360000Y-123190000D01*
X86360000Y-123190000D02*
X96520000Y-123190000D01*
X69850000Y-80010000D02*
X69850000Y-123190000D01*
X69850000Y-123190000D02*
X80010000Y-123190000D01*
X119380000Y-123190000D02*
X128270000Y-123190000D01*
%TO.N,Net-(J1-Pad3)*%
X96520000Y-80010000D02*
X96520000Y-87630000D01*
%TO.N,Net-(J2-Pad3)*%
X113030000Y-80010000D02*
X113030000Y-87630000D01*
%TO.N,Net-(J3-Pad3)*%
X128270000Y-87630000D02*
X129540000Y-87630000D01*
X129540000Y-87630000D02*
X129540000Y-80010000D01*
%TO.N,Net-(R11-Pad2)*%
X80010000Y-110490000D02*
X80010000Y-113030000D01*
%TO.N,Net-(J4-Pad3)*%
X80010000Y-80010000D02*
X80010000Y-87630000D01*
%TO.N,Net-(J4-Pad2)*%
X80010000Y-97790000D02*
X74930000Y-97790000D01*
X74930000Y-97790000D02*
X74930000Y-80010000D01*
X80010000Y-97790000D02*
X80010000Y-100330000D01*
%TO.N,Net-(J5-Pad1)*%
X138430000Y-88900000D02*
X133350000Y-88900000D01*
X133350000Y-88900000D02*
X133350000Y-100330000D01*
X133350000Y-100330000D02*
X138430000Y-100330000D01*
X133350000Y-88900000D02*
X133350000Y-111760000D01*
X133350000Y-111760000D02*
X138430000Y-111760000D01*
%TD*%
M02*
