%TF.GenerationSoftware,KiCad,Pcbnew,(5.1.10)-1*%
%TF.CreationDate,2021-11-11T09:34:37-08:00*%
%TF.ProjectId,encoder_5v_to_3v,656e636f-6465-4725-9f35-765f746f5f33,rev?*%
%TF.SameCoordinates,Original*%
%TF.FileFunction,Copper,L1,Top*%
%TF.FilePolarity,Positive*%
%FSLAX46Y46*%
G04 Gerber Fmt 4.6, Leading zero omitted, Abs format (unit mm)*
G04 Created by KiCad (PCBNEW (5.1.10)-1) date 2021-11-11 09:34:37*
%MOMM*%
%LPD*%
G01*
G04 APERTURE LIST*
%TA.AperFunction,ComponentPad*%
%ADD10O,1.600000X1.600000*%
%TD*%
%TA.AperFunction,ComponentPad*%
%ADD11C,1.600000*%
%TD*%
%TA.AperFunction,ComponentPad*%
%ADD12R,3.000000X3.000000*%
%TD*%
%TA.AperFunction,ComponentPad*%
%ADD13C,3.000000*%
%TD*%
%TA.AperFunction,ViaPad*%
%ADD14C,0.800000*%
%TD*%
%TA.AperFunction,Conductor*%
%ADD15C,0.250000*%
%TD*%
%TA.AperFunction,Conductor*%
%ADD16C,0.500000*%
%TD*%
G04 APERTURE END LIST*
D10*
%TO.P,R1,2*%
%TO.N,Net-(J1-Pad1)*%
X97790000Y-99060000D03*
D11*
%TO.P,R1,1*%
%TO.N,Net-(J1-Pad2)*%
X97790000Y-88900000D03*
%TD*%
D10*
%TO.P,R9,2*%
%TO.N,GND*%
X120650000Y-127000000D03*
D11*
%TO.P,R9,1*%
%TO.N,Net-(R8-Pad2)*%
X120650000Y-116840000D03*
%TD*%
D10*
%TO.P,R8,2*%
%TO.N,Net-(R8-Pad2)*%
X120650000Y-113030000D03*
D11*
%TO.P,R8,1*%
%TO.N,Net-(J3-Pad1)*%
X120650000Y-102870000D03*
%TD*%
D10*
%TO.P,R7,2*%
%TO.N,Net-(J3-Pad1)*%
X120650000Y-99060000D03*
D11*
%TO.P,R7,1*%
%TO.N,Net-(J3-Pad2)*%
X120650000Y-88900000D03*
%TD*%
D10*
%TO.P,R6,2*%
%TO.N,GND*%
X109220000Y-127000000D03*
D11*
%TO.P,R6,1*%
%TO.N,Net-(R5-Pad2)*%
X109220000Y-116840000D03*
%TD*%
D10*
%TO.P,R5,2*%
%TO.N,Net-(R5-Pad2)*%
X109220000Y-113030000D03*
D11*
%TO.P,R5,1*%
%TO.N,Net-(J2-Pad1)*%
X109220000Y-102870000D03*
%TD*%
D10*
%TO.P,R4,2*%
%TO.N,Net-(J2-Pad1)*%
X109220000Y-99060000D03*
D11*
%TO.P,R4,1*%
%TO.N,Net-(J2-Pad2)*%
X109220000Y-88900000D03*
%TD*%
D10*
%TO.P,R3,2*%
%TO.N,Net-(R2-Pad2)*%
X97790000Y-116840000D03*
D11*
%TO.P,R3,1*%
%TO.N,GND*%
X97790000Y-127000000D03*
%TD*%
D10*
%TO.P,R2,2*%
%TO.N,Net-(R2-Pad2)*%
X97790000Y-113030000D03*
D11*
%TO.P,R2,1*%
%TO.N,Net-(J1-Pad1)*%
X97790000Y-102870000D03*
%TD*%
D12*
%TO.P,J1,1*%
%TO.N,Net-(J1-Pad1)*%
X92710000Y-80010000D03*
D13*
%TO.P,J1,2*%
%TO.N,Net-(J1-Pad2)*%
X97790000Y-80010000D03*
%TD*%
%TO.P,J2,2*%
%TO.N,Net-(J2-Pad2)*%
X109220000Y-80010000D03*
D12*
%TO.P,J2,1*%
%TO.N,Net-(J2-Pad1)*%
X104140000Y-80010000D03*
%TD*%
%TO.P,J3,1*%
%TO.N,Net-(J3-Pad1)*%
X115570000Y-80010000D03*
D13*
%TO.P,J3,2*%
%TO.N,Net-(J3-Pad2)*%
X120650000Y-80010000D03*
%TD*%
D12*
%TO.P,J4,1*%
%TO.N,Net-(J4-Pad1)*%
X128270000Y-80010000D03*
D13*
%TO.P,J4,2*%
%TO.N,GND*%
X133350000Y-80010000D03*
%TD*%
%TO.P,J5,2*%
%TO.N,GND*%
X134620000Y-127000000D03*
D12*
%TO.P,J5,1*%
%TO.N,Net-(J4-Pad1)*%
X134620000Y-121920000D03*
%TD*%
%TO.P,J6,1*%
%TO.N,Net-(J4-Pad1)*%
X134620000Y-110490000D03*
D13*
%TO.P,J6,2*%
%TO.N,GND*%
X134620000Y-115570000D03*
%TD*%
%TO.P,J7,2*%
%TO.N,GND*%
X134620000Y-104140000D03*
D12*
%TO.P,J7,1*%
%TO.N,Net-(J4-Pad1)*%
X134620000Y-99060000D03*
%TD*%
%TO.P,J8,1*%
%TO.N,Net-(J4-Pad1)*%
X134620000Y-87630000D03*
D13*
%TO.P,J8,2*%
%TO.N,GND*%
X134620000Y-92710000D03*
%TD*%
D14*
%TO.N,GND*%
X97790000Y-127000000D03*
X109220000Y-127000000D03*
X120650000Y-127000000D03*
X134620000Y-127000000D03*
X134620000Y-115570000D03*
X134620000Y-104140000D03*
X134620000Y-92710000D03*
%TD*%
D15*
%TO.N,Net-(J1-Pad1)*%
X92710000Y-99060000D02*
X97790000Y-99060000D01*
X92710000Y-80010000D02*
X92710000Y-99060000D01*
X97790000Y-102870000D02*
X97790000Y-99060000D01*
%TO.N,Net-(J2-Pad1)*%
X104140000Y-80010000D02*
X104140000Y-99060000D01*
X104140000Y-99060000D02*
X109220000Y-99060000D01*
X109220000Y-102870000D02*
X109220000Y-99060000D01*
%TO.N,Net-(J3-Pad1)*%
X115570000Y-80010000D02*
X115570000Y-99060000D01*
X115570000Y-99060000D02*
X120650000Y-99060000D01*
X120650000Y-102870000D02*
X120650000Y-99060000D01*
D16*
%TO.N,Net-(J4-Pad1)*%
X134620000Y-121920000D02*
X128270000Y-121920000D01*
X128270000Y-110490000D02*
X128270000Y-121920000D01*
X134620000Y-110490000D02*
X128270000Y-110490000D01*
X128270000Y-99060000D02*
X128270000Y-110490000D01*
X134620000Y-99060000D02*
X128270000Y-99060000D01*
X134620000Y-87630000D02*
X128270000Y-87630000D01*
X128270000Y-87630000D02*
X128270000Y-99060000D01*
X128270000Y-80010000D02*
X128270000Y-87630000D01*
D15*
%TO.N,Net-(J1-Pad2)*%
X97790000Y-80010000D02*
X97790000Y-88900000D01*
%TO.N,Net-(R2-Pad2)*%
X97790000Y-113030000D02*
X97790000Y-116840000D01*
%TO.N,Net-(J2-Pad2)*%
X109220000Y-80010000D02*
X109220000Y-88900000D01*
%TO.N,Net-(R5-Pad2)*%
X109220000Y-113030000D02*
X109220000Y-116840000D01*
%TO.N,Net-(J3-Pad2)*%
X120650000Y-80010000D02*
X120650000Y-88900000D01*
%TO.N,Net-(R8-Pad2)*%
X120650000Y-113030000D02*
X120650000Y-116840000D01*
%TD*%
M02*
